<?xml version="1.0" encoding="UTF-8" standalone="no"?>
<svg
   version="1.1"
   id="Layer_1"
   x="0px"
   y="0px"
   viewBox="0 0 96.000002 96.000002"
   xml:space="preserve"
   sodipodi:docname="activity.svg"
   inkscape:version="1.3.2 (091e20ef0f, 2023-11-25, custom)"
   width="1in"
   height="1in"
   xmlns:inkscape="http://www.inkscape.org/namespaces/inkscape"
   xmlns:sodipodi="http://sodipodi.sourceforge.net/DTD/sodipodi-0.dtd"
   xmlns="http://www.w3.org/2000/svg"
   xmlns:svg="http://www.w3.org/2000/svg"
   xmlns:rdf="http://www.w3.org/1999/02/22-rdf-syntax-ns#"
   xmlns:cc="http://creativecommons.org/ns#"
   xmlns:dc="http://purl.org/dc/elements/1.1/"><metadata
   id="metadata65"><rdf:RDF><cc:Work
       rdf:about=""><dc:format>image/svg+xml</dc:format><dc:type
         rdf:resource="http://purl.org/dc/dcmitype/StillImage" /></cc:Work></rdf:RDF></metadata><defs
   id="defs63" /><sodipodi:namedview
   pagecolor="#ffffff"
   bordercolor="#666666"
   borderopacity="1"
   objecttolerance="10"
   gridtolerance="10"
   guidetolerance="10"
   inkscape:pageopacity="0"
   inkscape:pageshadow="2"
   inkscape:window-width="1366"
   inkscape:window-height="734"
   id="namedview61"
   showgrid="false"
   inkscape:zoom="5.6770833"
   inkscape:cx="48"
   inkscape:cy="48"
   inkscape:window-x="0"
   inkscape:window-y="0"
   inkscape:window-maximized="1"
   inkscape:current-layer="Layer_1"
   inkscape:document-rotation="0"
   inkscape:showpageshadow="2"
   inkscape:pagecheckerboard="0"
   inkscape:deskcolor="#d1d1d1"
   inkscape:document-units="in" />




<circle
   style="fill:#8c564b;stroke-width:1.5"
   cx="48"
   cy="48"
   r="48"
   id="circle2" /><path
   style="fill:#ffffff;stroke-width:11.9999"
   d="m 48.000376,83.933672 c -19.813545,0 -35.932922,-16.119564 -35.932922,-35.933109 0,-19.813545 16.119564,-35.932921 35.932922,-35.932921 19.813357,0 35.932921,16.119564 35.932921,35.932921 0,19.813358 -16.119189,35.933109 -35.932921,35.933109 z"
   id="path6" /><g
   id="g28"
   style="stroke-width:7.99991"
   transform="scale(0.1875022)">
	<path
   style="fill:#515262;stroke-width:7.99991"
   d="m 255.999,64.359 c -2.942,0 -5.866,0.077 -8.776,0.209 v 51.096 c 0,4.847 3.928,8.776 8.776,8.776 4.848,0 8.776,-3.929 8.776,-8.776 V 64.569 c -2.908,-0.133 -5.833,-0.21 -8.776,-0.21 z"
   id="path10" />
	<path
   style="fill:#515262;stroke-width:7.99991"
   d="m 385.097,114.491 -36.072,36.07 c -3.427,3.427 -3.427,8.985 0,12.411 1.714,1.714 3.96,2.571 6.207,2.571 2.246,0 4.492,-0.857 6.207,-2.571 l 36.07,-36.07 c -3.947,-4.323 -8.089,-8.464 -12.412,-12.411 z"
   id="path12" />
	<path
   style="fill:#515262;stroke-width:7.99991"
   d="m 447.431,247.223 h -51.095 c -4.848,0 -8.776,3.929 -8.776,8.776 0,4.847 3.928,8.776 8.776,8.776 h 51.095 c 0.132,-2.91 0.209,-5.834 0.209,-8.776 0.001,-2.941 -0.076,-5.866 -0.209,-8.776 z"
   id="path14" />
	<path
   style="fill:#515262;stroke-width:7.99991"
   d="m 397.509,385.097 -36.07,-36.07 c -3.429,-3.427 -8.985,-3.427 -12.412,0 -3.427,3.427 -3.427,8.985 0,12.411 l 36.072,36.07 c 4.321,-3.946 8.463,-8.088 12.41,-12.411 z"
   id="path16" />
	<path
   style="fill:#515262;stroke-width:7.99991"
   d="m 255.999,387.56 c -4.848,0 -8.776,3.929 -8.776,8.776 v 51.096 c 2.91,0.132 5.834,0.209 8.776,0.209 2.942,0 5.866,-0.077 8.776,-0.209 v -51.096 c 0.001,-4.848 -3.928,-8.776 -8.776,-8.776 z"
   id="path18" />
	<path
   style="fill:#515262;stroke-width:7.99991"
   d="m 150.562,349.026 -36.07,36.07 c 3.947,4.323 8.089,8.465 12.412,12.412 l 36.072,-36.07 c 3.427,-3.427 3.427,-8.985 0,-12.411 -3.429,-3.428 -8.985,-3.428 -12.414,-10e-4 z"
   id="path20" />
	<path
   style="fill:#515262;stroke-width:7.99991"
   d="M 115.664,247.223 H 64.569 c -0.132,2.91 -0.209,5.834 -0.209,8.776 0,2.942 0.077,5.866 0.209,8.776 h 51.095 c 4.848,0 8.776,-3.929 8.776,-8.776 0,-4.847 -3.929,-8.776 -8.776,-8.776 z"
   id="path22" />
	<path
   style="fill:#515262;stroke-width:7.99991"
   d="m 114.491,126.902 36.07,36.07 c 1.714,1.713 3.961,2.571 6.207,2.571 2.246,0 4.492,-0.857 6.207,-2.571 3.427,-3.427 3.427,-8.985 0,-12.411 l -36.072,-36.07 c -4.324,3.947 -8.465,8.088 -12.412,12.411 z"
   id="path24" />
	<path
   style="fill:#515262;stroke-width:7.99991"
   d="m 303.437,320.988 c -4.492,0 -8.985,-1.714 -12.411,-5.142 L 243.59,268.41 c -3.292,-3.292 -5.142,-7.756 -5.142,-12.411 v -88.358 c 0,-9.694 7.859,-17.552 17.552,-17.552 9.694,0 17.552,7.859 17.552,17.552 v 81.087 l 42.296,42.296 c 6.855,6.854 6.855,17.968 0,24.823 -3.428,3.428 -7.92,5.141 -12.411,5.141 z"
   id="path26" />
</g>
<g
   id="g30"
   transform="translate(-20.244496,-12.63922)">
</g>
<g
   id="g32"
   transform="translate(-20.244496,-12.63922)">
</g>
<g
   id="g34"
   transform="translate(-20.244496,-12.63922)">
</g>
<g
   id="g36"
   transform="translate(-20.244496,-12.63922)">
</g>
<g
   id="g38"
   transform="translate(-20.244496,-12.63922)">
</g>
<g
   id="g40"
   transform="translate(-20.244496,-12.63922)">
</g>
<g
   id="g42"
   transform="translate(-20.244496,-12.63922)">
</g>
<g
   id="g44"
   transform="translate(-20.244496,-12.63922)">
</g>
<g
   id="g46"
   transform="translate(-20.244496,-12.63922)">
</g>
<g
   id="g48"
   transform="translate(-20.244496,-12.63922)">
</g>
<g
   id="g50"
   transform="translate(-20.244496,-12.63922)">
</g>
<g
   id="g52"
   transform="translate(-20.244496,-12.63922)">
</g>
<g
   id="g54"
   transform="translate(-20.244496,-12.63922)">
</g>
<g
   id="g56"
   transform="translate(-20.244496,-12.63922)">
</g>
<g
   id="g58"
   transform="translate(-20.244496,-12.63922)">
</g>
</svg>
