<?xml version="1.0" encoding="UTF-8" standalone="no"?>
<svg
   xmlns:dc="http://purl.org/dc/elements/1.1/"
   xmlns:cc="http://creativecommons.org/ns#"
   xmlns:rdf="http://www.w3.org/1999/02/22-rdf-syntax-ns#"
   xmlns:svg="http://www.w3.org/2000/svg"
   xmlns="http://www.w3.org/2000/svg"
   xmlns:sodipodi="http://sodipodi.sourceforge.net/DTD/sodipodi-0.dtd"
   xmlns:inkscape="http://www.inkscape.org/namespaces/inkscape"
   width="121.70833mm"
   height="121.70833mm"
   viewBox="0 0 121.70833 121.70833"
   version="1.1"
   id="svg8"
   inkscape:version="1.0.1 (3bc2e813f5, 2020-09-07, custom)"
   sodipodi:docname="mindset.svg">
  <defs
     id="defs2">
    <clipPath
       clipPathUnits="userSpaceOnUse"
       id="clipPath26">
      <path
         d="M 0,612 H 792 V 0 H 0 Z"
         id="path24-7"
         inkscape:connector-curvature="0" />
    </clipPath>
  </defs>
  <sodipodi:namedview
     id="base"
     pagecolor="#ffffff"
     bordercolor="#666666"
     borderopacity="1.0"
     inkscape:pageopacity="0.0"
     inkscape:pageshadow="2"
     inkscape:zoom="0.35"
     inkscape:cx="-489.22875"
     inkscape:cy="191.63659"
     inkscape:document-units="mm"
     inkscape:current-layer="layer1"
     showgrid="false"
     inkscape:snap-global="false"
     inkscape:window-width="2486"
     inkscape:window-height="1403"
     inkscape:window-x="74"
     inkscape:window-y="0"
     inkscape:window-maximized="1"
     inkscape:document-rotation="0" />
  <metadata
     id="metadata5">
    <rdf:RDF>
      <cc:Work
         rdf:about="">
        <dc:format>image/svg+xml</dc:format>
        <dc:type
           rdf:resource="http://purl.org/dc/dcmitype/StillImage" />
        <dc:title></dc:title>
      </cc:Work>
    </rdf:RDF>
  </metadata>
  <g
     inkscape:label="Layer 1"
     inkscape:groupmode="layer"
     id="layer1"
     transform="translate(-86.888674,-8.37625)">
    <g
       style="fill:#125670;fill-opacity:1"
       id="g103"
       transform="matrix(0.26458333,0,0,0.26458333,63.627188,156.52022)" />
    <g
       style="fill:#125670;fill-opacity:1"
       id="g105"
       transform="matrix(0.26458333,0,0,0.26458333,63.627188,156.52022)" />
    <g
       style="fill:#125670;fill-opacity:1"
       id="g107"
       transform="matrix(0.26458333,0,0,0.26458333,63.627188,156.52022)" />
    <g
       style="fill:#125670;fill-opacity:1"
       id="g109"
       transform="matrix(0.26458333,0,0,0.26458333,63.627188,156.52022)" />
    <g
       style="fill:#125670;fill-opacity:1"
       id="g111"
       transform="matrix(0.26458333,0,0,0.26458333,63.627188,156.52022)" />
    <g
       style="fill:#125670;fill-opacity:1"
       id="g113"
       transform="matrix(0.26458333,0,0,0.26458333,63.627188,156.52022)" />
    <g
       style="fill:#125670;fill-opacity:1"
       id="g115"
       transform="matrix(0.26458333,0,0,0.26458333,63.627188,156.52022)" />
    <g
       style="fill:#125670;fill-opacity:1"
       id="g117"
       transform="matrix(0.26458333,0,0,0.26458333,63.627188,156.52022)" />
    <g
       style="fill:#125670;fill-opacity:1"
       id="g119"
       transform="matrix(0.26458333,0,0,0.26458333,63.627188,156.52022)" />
    <g
       style="fill:#125670;fill-opacity:1"
       id="g121"
       transform="matrix(0.26458333,0,0,0.26458333,63.627188,156.52022)" />
    <g
       style="fill:#125670;fill-opacity:1"
       id="g123"
       transform="matrix(0.26458333,0,0,0.26458333,63.627188,156.52022)" />
    <g
       style="fill:#125670;fill-opacity:1"
       id="g125"
       transform="matrix(0.26458333,0,0,0.26458333,63.627188,156.52022)" />
    <g
       style="fill:#125670;fill-opacity:1"
       id="g127"
       transform="matrix(0.26458333,0,0,0.26458333,63.627188,156.52022)" />
    <g
       style="fill:#125670;fill-opacity:1"
       id="g129"
       transform="matrix(0.26458333,0,0,0.26458333,63.627188,156.52022)" />
    <g
       style="fill:#125670;fill-opacity:1"
       id="g131"
       transform="matrix(0.26458333,0,0,0.26458333,63.627188,156.52022)" />
    <g
       id="g312"
       transform="translate(43.845241,-141.36309)">
      <g
         transform="matrix(0.26458333,0,0,0.26458333,43.043433,149.73934)"
         id="g89">
        <g
           id="g26">
          <path
             inkscape:connector-curvature="0"
             style="fill:#ff926e"
             d="m 230,203.06 h -29.375 v 50 h -31.25 v -50 H 85.04 v -30 H 120 V 133.1 h 30 v 39.96 h 109.375 v 50 h 31.25 v -50 h 84.335 v -30 H 340 V 103.1 h -30 v 39.96 h -80 v -36 h -49.96 v -30 H 230 V 0 C 206.98,0 187.01,12.97 176.94,31.99 158.72,20.55 134.93,19.31 115,30.81 95.07,42.32 84.25,63.54 85.04,85.04 63.54,84.25 42.32,95.07 30.81,115 19.31,134.93 20.55,158.72 31.99,176.94 12.97,187.01 0,206.98 0,230 c 0,23.02 12.97,42.99 31.99,53.06 H 230 Z"
             id="path10" />
          <path
             inkscape:connector-curvature="0"
             style="fill:#f46a1a"
             d="M 428.01,176.94 C 439.45,158.72 440.69,134.93 429.19,115 417.68,95.07 396.46,84.25 374.96,85.04 375.75,63.54 364.93,42.32 345,30.81 325.07,19.31 301.28,20.55 283.06,31.99 272.99,12.97 253.02,0 230,0 v 77.06 h 50.04 v 30 H 230 v 36 h 80 V 103.1 h 30 v 39.96 h 34.96 v 30 h -84.335 v 50 h -31.25 v -50 H 230 v 110 H 428.01 C 447.03,272.99 460,253.02 460,230 c 0,-23.02 -12.97,-42.99 -31.99,-53.06 z m -34.5,76.12 h -30 v -30 h 30 z"
             id="path12" />
          <path
             inkscape:connector-curvature="0"
             style="fill:#ffb76e"
             d="m 329.01,283.06 h -99 c 0,47.828 33.909,87.729 79,96.979 V 460 h 40 v -79.961 c -6.459,1.325 -13.148,2.021 -20,2.021 z"
             id="path14" />
          <rect
             x="180.03999"
             y="77.059998"
             style="fill:#ffb76e"
             width="50"
             height="30"
             id="rect16" />
          <polygon
             style="fill:#ffb76e"
             points="230,173.06 150,173.06 150,133.1 120,133.1 120,173.06 85.04,173.06 85.04,203.06 169.375,203.06 169.375,253.06 200.625,253.06 200.625,203.06 230,203.06 "
             id="polygon18" />
          <rect
             x="230.03999"
             y="77.059998"
             style="fill:#ff926e"
             width="50"
             height="30"
             id="rect20" />
          <rect
             x="363.51001"
             y="223.06"
             style="fill:#ff926e"
             width="30"
             height="30"
             id="rect22" />
          <path
             inkscape:connector-curvature="0"
             style="fill:#ff926e"
             d="m 329.01,382.06 c 6.852,0 13.54,-0.697 20,-2.021 45.091,-9.249 79,-49.15 79,-96.979 h -99 z"
             id="path24" />
        </g>
        <g
           id="g28" />
        <g
           id="g30" />
        <g
           id="g32" />
        <g
           id="g34" />
        <g
           id="g36" />
        <g
           id="g38" />
        <g
           id="g40" />
        <g
           id="g42" />
        <g
           id="g44" />
        <g
           id="g46" />
        <g
           id="g48" />
        <g
           id="g50" />
        <g
           id="g52" />
        <g
           id="g54" />
        <g
           id="g56" />
      </g>
      <text
         id="text271"
         y="216.37901"
         x="55.084003"
         style="font-style:normal;font-variant:normal;font-weight:bold;font-stretch:normal;font-size:45.7729px;line-height:1.25;font-family:'IBM Plex Serif';-inkscape-font-specification:'IBM Plex Serif Bold';letter-spacing:0px;word-spacing:0px;fill:#125670;fill-opacity:1;stroke:none;stroke-width:0.264583"
         xml:space="preserve"><tspan
           style="font-style:normal;font-variant:normal;font-weight:bold;font-stretch:normal;font-family:'IBM Plex Serif';-inkscape-font-specification:'IBM Plex Serif Bold';fill:#125670;fill-opacity:1;stroke-width:0.264583"
           y="216.37901"
           x="55.084003"
           id="tspan269"
           sodipodi:role="line">C</tspan></text>
      <text
         xml:space="preserve"
         style="font-style:normal;font-variant:normal;font-weight:bold;font-stretch:normal;font-size:45.7729px;line-height:1.25;font-family:'IBM Plex Serif';-inkscape-font-specification:'IBM Plex Serif Bold';letter-spacing:0px;word-spacing:0px;fill:#125670;fill-opacity:1;stroke:none;stroke-width:0.264583"
         x="87.778946"
         y="195.21234"
         id="text275"><tspan
           sodipodi:role="line"
           id="tspan273"
           x="87.778946"
           y="195.21234"
           style="font-style:normal;font-variant:normal;font-weight:bold;font-stretch:normal;font-family:'IBM Plex Serif';-inkscape-font-specification:'IBM Plex Serif Bold';fill:#125670;fill-opacity:1;stroke-width:0.264583">C</tspan></text>
      <text
         id="text279"
         y="216.37901"
         x="120.47388"
         style="font-style:normal;font-variant:normal;font-weight:bold;font-stretch:normal;font-size:45.7729px;line-height:1.25;font-family:'IBM Plex Serif';-inkscape-font-specification:'IBM Plex Serif Bold';letter-spacing:0px;word-spacing:0px;fill:#125670;fill-opacity:1;stroke:none;stroke-width:0.264583"
         xml:space="preserve"><tspan
           style="font-style:normal;font-variant:normal;font-weight:bold;font-stretch:normal;font-family:'IBM Plex Serif';-inkscape-font-specification:'IBM Plex Serif Bold';fill:#125670;fill-opacity:1;stroke-width:0.264583"
           y="216.37901"
           x="120.47388"
           id="tspan277"
           sodipodi:role="line">C</tspan></text>
    </g>
  </g>
</svg>
