<?xml version="1.0" encoding="UTF-8" standalone="no"?>
<!-- Uploaded to: SVG Repo, www.svgrepo.com, Generator: SVG Repo Mixer Tools -->

<svg
   height="800px"
   width="800px"
   version="1.1"
   id="Capa_1"
   viewBox="0 0 58 58"
   xml:space="preserve"
   sodipodi:docname="bonus.svg"
   inkscape:version="1.4 (e7c3feb100, 2024-10-09)"
   xmlns:inkscape="http://www.inkscape.org/namespaces/inkscape"
   xmlns:sodipodi="http://sodipodi.sourceforge.net/DTD/sodipodi-0.dtd"
   xmlns="http://www.w3.org/2000/svg"
   xmlns:svg="http://www.w3.org/2000/svg"><defs
   id="defs12" /><sodipodi:namedview
   id="namedview12"
   pagecolor="#ffffff"
   bordercolor="#000000"
   borderopacity="0.25"
   inkscape:showpageshadow="2"
   inkscape:pageopacity="0.0"
   inkscape:pagecheckerboard="0"
   inkscape:deskcolor="#d1d1d1"
   inkscape:zoom="0.6925"
   inkscape:cx="153.06859"
   inkscape:cy="532.85199"
   inkscape:window-width="2490"
   inkscape:window-height="1404"
   inkscape:window-x="0"
   inkscape:window-y="0"
   inkscape:window-maximized="1"
   inkscape:current-layer="Capa_1" />




<path
   style="fill:#f3b000;stroke-width:2.09582"
   d="m 32.23805,5.192073 v 0 c 0.683239,1.91768 2.873375,2.827268 4.713511,1.9512132 v 0 c 2.919484,-1.3874362 5.966813,1.6577975 4.579377,4.5793778 v 0 c -0.873959,1.838039 0.03354,4.030271 1.951213,4.71351 v 0 c 3.047329,1.083541 3.047329,5.392558 0,6.4761 v 0 c -1.91768,0.683238 -2.827268,2.873375 -1.951213,4.713509 v 0 c 1.387436,2.919485 -1.657798,5.966815 -4.579377,4.579378 v 0 c -1.838039,-0.873958 -4.030272,0.03354 -4.713511,1.951214 v 0 c -1.083542,3.047329 -5.392558,3.047329 -6.4761,0 v 0 c -0.683239,-1.91768 -2.873376,-2.827268 -4.71351,-1.951214 v 0 c -2.919484,1.387437 -5.966814,-1.657797 -4.579378,-4.579378 v 0 c 0.873959,-1.838037 -0.03354,-4.030271 -1.951212,-4.713509 v 0 c -3.047331,-1.083542 -3.047331,-5.392559 0,-6.4761 v 0 c 1.917679,-0.683239 2.827267,-2.873376 1.951212,-4.71351 v 0 C 15.081626,8.8031796 18.126859,5.75585 21.04844,7.1432862 v 0 c 1.838039,0.873959 4.030271,-0.033533 4.71351,-1.9512132 v 0 c 1.083542,-3.0452337 5.392558,-3.0452337 6.4761,0 z"
   id="path11" />
<path
   style="fill:#245270;stroke-width:2.09582"
   d="m 36.951561,32.205161 c -1.840136,-0.873958 -4.030272,0.03354 -4.713511,1.951214 -1.083542,3.047329 -5.392558,3.047329 -6.4761,0 -0.683239,-1.919776 -2.873376,-2.827268 -4.71351,-1.951214 -0.144612,0.06916 -0.287128,0.07964 -0.43174,0.127845 v 22.970243 l 8.3833,-8.3833 8.3833,8.3833 V 32.330911 c -0.144612,-0.04611 -0.287128,-0.05868 -0.431739,-0.12575 z"
   id="path12" />
</svg>
