<?xml version="1.0" encoding="UTF-8" standalone="no"?>
<!-- Created with Inkscape (http://www.inkscape.org/) -->

<svg
   width="50mm"
   height="50mm"
   viewBox="0 0 50.000001 50.000001"
   version="1.1"
   id="svg8"
   inkscape:version="1.3.2 (091e20ef0f, 2023-11-25, custom)"
   sodipodi:docname="curiosity.svg"
   xmlns:inkscape="http://www.inkscape.org/namespaces/inkscape"
   xmlns:sodipodi="http://sodipodi.sourceforge.net/DTD/sodipodi-0.dtd"
   xmlns:xlink="http://www.w3.org/1999/xlink"
   xmlns="http://www.w3.org/2000/svg"
   xmlns:svg="http://www.w3.org/2000/svg"
   xmlns:rdf="http://www.w3.org/1999/02/22-rdf-syntax-ns#"
   xmlns:cc="http://creativecommons.org/ns#"
   xmlns:dc="http://purl.org/dc/elements/1.1/">
  <defs
     id="defs2">
    <linearGradient
       inkscape:collect="always"
       id="linearGradient5075">
      <stop
         style="stop-color:#17becf;stop-opacity:0"
         offset="0"
         id="stop5071" />
      <stop
         style="stop-color:#17becf;stop-opacity:0.5"
         offset="0.49999425"
         id="stop7742" />
      <stop
         style="stop-color:#17becf;stop-opacity:0.5"
         offset="1"
         id="stop5073" />
    </linearGradient>
    <radialGradient
       inkscape:collect="always"
       xlink:href="#linearGradient5075"
       id="radialGradient5077"
       cx="116.95434"
       cy="30.38798"
       fx="116.95434"
       fy="30.38798"
       r="17.5"
       gradientUnits="userSpaceOnUse"
       gradientTransform="matrix(0.28571421,-0.28571436,0.1428572,0.14285712,100.69755,66.007582)" />
  </defs>
  <sodipodi:namedview
     id="base"
     pagecolor="#ffffff"
     bordercolor="#666666"
     borderopacity="1.0"
     inkscape:pageopacity="0.0"
     inkscape:pageshadow="2"
     inkscape:zoom="4.4115508"
     inkscape:cx="133.28646"
     inkscape:cy="103.81837"
     inkscape:document-units="mm"
     inkscape:current-layer="layer1"
     showgrid="true"
     inkscape:snap-global="true"
     inkscape:window-width="2560"
     inkscape:window-height="1406"
     inkscape:window-x="0"
     inkscape:window-y="0"
     inkscape:window-maximized="1"
     inkscape:pagecheckerboard="0"
     inkscape:snap-grids="true"
     inkscape:snap-bbox="true"
     inkscape:bbox-nodes="true"
     inkscape:bbox-paths="true"
     inkscape:snap-bbox-edge-midpoints="true"
     inkscape:snap-bbox-midpoints="true"
     showguides="false"
     inkscape:showpageshadow="2"
     inkscape:deskcolor="#d1d1d1">
    <inkscape:grid
       type="xygrid"
       id="grid10819"
       units="mm"
       spacingx="2.5"
       spacingy="2.5"
       empspacing="4"
       originx="0"
       originy="0"
       visible="true" />
  </sodipodi:namedview>
  <metadata
     id="metadata5">
    <rdf:RDF>
      <cc:Work
         rdf:about="">
        <dc:format>image/svg+xml</dc:format>
        <dc:type
           rdf:resource="http://purl.org/dc/dcmitype/StillImage" />
      </cc:Work>
    </rdf:RDF>
  </metadata>
  <g
     inkscape:label="Layer 1"
     inkscape:groupmode="layer"
     id="layer1"
     transform="translate(-120.9542,-19.433187)">
    <g
       style="fill:#125670;fill-opacity:1"
       id="g103"
       transform="matrix(0.26458333,0,0,0.26458333,63.627188,156.52022)" />
    <g
       style="fill:#125670;fill-opacity:1"
       id="g105"
       transform="matrix(0.26458333,0,0,0.26458333,63.627188,156.52022)" />
    <g
       style="fill:#125670;fill-opacity:1"
       id="g107"
       transform="matrix(0.26458333,0,0,0.26458333,63.627188,156.52022)" />
    <g
       style="fill:#125670;fill-opacity:1"
       id="g109"
       transform="matrix(0.26458333,0,0,0.26458333,63.627188,156.52022)" />
    <g
       style="fill:#125670;fill-opacity:1"
       id="g111"
       transform="matrix(0.26458333,0,0,0.26458333,63.627188,156.52022)" />
    <g
       style="fill:#125670;fill-opacity:1"
       id="g113"
       transform="matrix(0.26458333,0,0,0.26458333,63.627188,156.52022)" />
    <g
       style="fill:#125670;fill-opacity:1"
       id="g115"
       transform="matrix(0.26458333,0,0,0.26458333,63.627188,156.52022)" />
    <g
       style="fill:#125670;fill-opacity:1"
       id="g117"
       transform="matrix(0.26458333,0,0,0.26458333,63.627188,156.52022)" />
    <g
       style="fill:#125670;fill-opacity:1"
       id="g119"
       transform="matrix(0.26458333,0,0,0.26458333,63.627188,156.52022)" />
    <g
       style="fill:#125670;fill-opacity:1"
       id="g121"
       transform="matrix(0.26458333,0,0,0.26458333,63.627188,156.52022)" />
    <g
       style="fill:#125670;fill-opacity:1"
       id="g123"
       transform="matrix(0.26458333,0,0,0.26458333,63.627188,156.52022)" />
    <g
       style="fill:#125670;fill-opacity:1"
       id="g125"
       transform="matrix(0.26458333,0,0,0.26458333,63.627188,156.52022)" />
    <g
       style="fill:#125670;fill-opacity:1"
       id="g127"
       transform="matrix(0.26458333,0,0,0.26458333,63.627188,156.52022)" />
    <g
       style="fill:#125670;fill-opacity:1"
       id="g129"
       transform="matrix(0.26458333,0,0,0.26458333,63.627188,156.52022)" />
    <g
       style="fill:#125670;fill-opacity:1"
       id="g131"
       transform="matrix(0.26458333,0,0,0.26458333,63.627188,156.52022)" />
    <path
       style="fill:#7f7f7f;stroke:#000000;stroke-width:0.5;stroke-linecap:butt;stroke-linejoin:bevel;stroke-miterlimit:4;stroke-dasharray:none;stroke-opacity:1"
       d="m 123.4542,64.433187 0,2.5 h 2.5 l 7.5,-7.5 -2.5,-2.5 z"
       id="path2180"
       sodipodi:nodetypes="cccccc" />
    <circle
       style="fill:url(#radialGradient5077);stroke:none;stroke-width:0.508;stroke-linecap:square;stroke-linejoin:bevel;fill-opacity:1"
       id="path1196"
       cx="146.20821"
       cy="44.433186"
       r="17.5" />
    <path
       id="path14652"
       style="fill:#f4b61a;stroke:#000000;stroke-width:0.5;stroke-linecap:square;stroke-linejoin:bevel;stroke-miterlimit:4;stroke-dasharray:none"
       d="m 135.34748,55.040025 c -2.71449,-2.714492 -4.39343,-6.464538 -4.3934,-10.60672 -3e-5,-4.142182 1.67891,-7.892228 4.3934,-10.60672 l -3.53523,-3.535227 c -3.61924,3.619247 -5.85781,8.619173 -5.85786,14.141947 5e-5,5.522773 2.23862,10.5227 5.85786,14.141946 z"
       sodipodi:nodetypes="ccccccc" />
    <path
       id="path10886"
       style="fill:#125670;stroke:#000000;stroke-width:0.5;stroke-linecap:square;stroke-linejoin:bevel;stroke-miterlimit:4;stroke-dasharray:none"
       d="m 135.34748,33.826585 c 2.71449,-2.714493 6.46454,-4.393431 10.60672,-4.393398 4.14218,-3.3e-5 7.89223,1.678905 10.60672,4.393398 l 3.53523,-3.535227 c -3.61925,-3.619246 -8.61918,-5.857813 -14.14195,-5.857865 -5.52277,5.2e-5 -10.5227,2.238619 -14.14195,5.857865 z"
       sodipodi:nodetypes="ccccccc" />
    <path
       id="path528"
       style="fill:#125670;stroke:#000000;stroke-width:0.5;stroke-linecap:square;stroke-linejoin:bevel;stroke-miterlimit:4;stroke-dasharray:none"
       d="m 156.56092,55.040025 c -2.7145,2.71449 -6.46454,4.39343 -10.60672,4.3934 -4.14219,3e-5 -7.89223,-1.67891 -10.60672,-4.3934 l -3.53523,3.53523 c 3.61925,3.61924 8.61917,5.85781 14.14195,5.85786 5.52277,-5e-5 10.5227,-2.23862 14.14194,-5.85786 z"
       sodipodi:nodetypes="ccccccc" />
    <path
       style="fill:#8c564b;stroke:#000000;stroke-width:0.5;stroke-linecap:butt;stroke-linejoin:bevel;stroke-opacity:1;stroke-miterlimit:4;stroke-dasharray:none"
       d="m 123.4542,61.933186 5,5.000001 5,-5.000001 -5,-5 z"
       id="path4080" />
  </g>
</svg>
