<?xml version="1.0" encoding="UTF-8" standalone="no"?>
<!-- Uploaded to: SVG Repo, www.svgrepo.com, Generator: SVG Repo Mixer Tools -->

<svg
   version="1.1"
   id="Layer_1"
   viewBox="0 0 512 512"
   xml:space="preserve"
   sodipodi:docname="describe.svg"
   inkscape:version="1.4 (e7c3feb100, 2024-10-09)"
   xmlns:inkscape="http://www.inkscape.org/namespaces/inkscape"
   xmlns:sodipodi="http://sodipodi.sourceforge.net/DTD/sodipodi-0.dtd"
   xmlns="http://www.w3.org/2000/svg"
   xmlns:svg="http://www.w3.org/2000/svg"><defs
   id="defs20" /><sodipodi:namedview
   id="namedview20"
   pagecolor="#ffffff"
   bordercolor="#000000"
   borderopacity="0.25"
   inkscape:showpageshadow="2"
   inkscape:pageopacity="0.0"
   inkscape:pagecheckerboard="0"
   inkscape:deskcolor="#d1d1d1"
   inkscape:zoom="2.1640625"
   inkscape:cx="255.76895"
   inkscape:cy="256"
   inkscape:window-width="2490"
   inkscape:window-height="1404"
   inkscape:window-x="0"
   inkscape:window-y="0"
   inkscape:window-maximized="1"
   inkscape:current-layer="Layer_1" />
<path
   style="fill:#F2F2F2;stroke:#000000;stroke-opacity:1;stroke-width:2.66666667;stroke-dasharray:none;stroke-linejoin:round"
   d="M512,54.237v403.527H0V54.237H512z"
   id="path1" />
<path
   style="fill:#2BA5F7;"
   d="M458.846,165.923c25.282,25.282,25.282,66.266,0,91.548s-66.266,25.282-91.548,0  c-7.356-7.356-12.57-16.054-15.643-25.294h0.012l36.158-80.084v-0.012C411.377,142.101,439.637,146.714,458.846,165.923z"
   id="path2" />
<g
   id="g3">
	<path
   style="fill:#F7B239;"
   d="M387.825,152.093l25.247,59.604l-61.405,20.48h-0.012c-7.498-22.516-2.283-48.328,15.643-66.254   c6.073-6.073,13.065-10.699,20.527-13.842L387.825,152.093L387.825,152.093z"
   id="path3" />
	<rect
   x="154.871"
   y="316.298"
   style="fill:#F7B239;"
   width="31.779"
   height="87.829"
   id="rect3" />
</g>
<rect
   x="96.562"
   y="343.923"
   style="fill:#F95428;"
   width="31.779"
   height="60.204"
   id="rect4" />
<path
   style="fill:#F7B239;"
   d="M102.871,137.44l-3.413,62.382l-56.202-25.529c0-22.752,18.444-41.195,41.195-41.195  C91.077,133.096,97.339,134.662,102.871,137.44z"
   id="path4" />
<path
   style="fill:#F95428;"
   d="M125.646,174.292c0,5.473-1.059,10.687-3.001,15.454h-0.012l-39.654,8.898l1.471-24.352l18.42-36.852  C116.383,144.196,125.646,158.167,125.646,174.292z"
   id="path5" />
<g
   id="g6">
	<path
   style="fill:#2BA5F7;"
   d="M122.633,189.746h0.012c-6.109,15.089-20.904,25.741-38.194,25.741   c-22.752,0-41.195-18.444-41.195-41.195h41.195L122.633,189.746z"
   id="path6" />
	<rect
   x="38.253"
   y="366.639"
   style="fill:#2BA5F7;"
   width="31.779"
   height="37.488"
   id="rect6" />
</g>
<g
   id="g13">
	<rect
   x="149.775"
   y="146.432"
   style="fill:#808080;"
   width="155.954"
   height="10.593"
   id="rect7" />
	<rect
   x="149.775"
   y="190.405"
   style="fill:#808080;"
   width="142.713"
   height="10.593"
   id="rect8" />
	<rect
   x="149.775"
   y="168.419"
   style="fill:#808080;"
   width="118.125"
   height="10.593"
   id="rect9" />
	<rect
   x="258.354"
   y="332.918"
   style="fill:#808080;"
   width="221.278"
   height="10.593"
   id="rect10" />
	<rect
   x="339.568"
   y="354.881"
   style="fill:#808080;"
   width="140.064"
   height="10.593"
   id="rect11" />
	<rect
   x="308.966"
   y="376.856"
   style="fill:#808080;"
   width="170.667"
   height="10.593"
   id="rect12" />
	<rect
   x="220.101"
   y="398.83"
   style="fill:#808080;"
   width="259.531"
   height="10.593"
   id="rect13" />
</g>
<g
   id="g15">
	<polygon
   style="fill:#F95428;"
   points="263.142,80.149 254.819,88.471 246.497,80.149 239.006,87.638 247.329,95.962    239.006,104.284 246.497,111.774 254.819,103.451 263.142,111.774 270.633,104.284 262.31,95.962 270.633,87.638  "
   id="polygon13" />
	<rect
   x="287.191"
   y="90.665"
   style="fill:#F95428;"
   width="60.028"
   height="10.593"
   id="rect14" />
	<rect
   x="164.782"
   y="90.665"
   style="fill:#F95428;"
   width="60.028"
   height="10.593"
   id="rect15" />
</g>
<g
   id="g17">
	<rect
   x="182.437"
   y="242.288"
   style="fill:#808080;"
   width="137.71"
   height="10.593"
   id="rect16" />
	<rect
   x="228.929"
   y="266.664"
   style="fill:#808080;"
   width="91.218"
   height="10.593"
   id="rect17" />
</g>
<g
   id="g20">
	<circle
   style="fill:#F7B239;"
   cx="481.398"
   cy="81.508"
   r="8.828"
   id="circle17" />
	<circle
   style="fill:#F7B239;"
   cx="481.398"
   cy="430.315"
   r="8.828"
   id="circle18" />
	<circle
   style="fill:#F7B239;"
   cx="30.602"
   cy="430.315"
   r="8.828"
   id="circle19" />
	<circle
   style="fill:#F7B239;"
   cx="30.602"
   cy="81.508"
   r="8.828"
   id="circle20" />
</g>
</svg>
