<?xml version="1.0" encoding="iso-8859-1"?>
<!-- Uploaded to: SVG Repo, www.svgrepo.com, Generator: SVG Repo Mixer Tools -->
<svg height="800px" width="800px" version="1.1" id="Layer_1" xmlns="http://www.w3.org/2000/svg" xmlns:xlink="http://www.w3.org/1999/xlink" 
	 viewBox="0 0 511.986 511.986" xml:space="preserve">
<path style="fill:#4A89DC;" d="M31.999,10.672C14.312,10.672,0,24.999,0,42.671v266.648c0,11.781,9.547,21.344,21.328,21.344h42.671
	V74.67V31.999V10.672H31.999z"/>
<path style="fill:#5D9CEC;" d="M479.986,74.67H0v266.648c0,17.672,14.312,32,31.999,32h479.987V106.669L479.986,74.67z"/>
<path style="fill:#83BEFF;" d="M490.642,415.988c11.781,0,21.344-9.547,21.344-21.328V106.669c0,0-9.562,10.656-21.344,10.656
	h-42.655v298.663H490.642z"/>
<path style="fill:#5D9CEC;" d="M479.986,74.67h-31.999v63.998h31.999c17.672,0,32-14.327,32-31.999S497.658,74.67,479.986,74.67z"/>
<path style="fill:#F5F7FA;" d="M309.319,192.01v-85.341H74.623v234.649h319.99V191.994L309.319,192.01z M373.287,319.991h-21.296
	c0-5.891-4.781-10.672-10.672-10.672h-42.671c-5.891,0-10.656,4.781-10.656,10.672H181.323v-74.67
	c0-5.891-4.781-10.656-10.671-10.656c-5.891,0-10.656,4.766-10.656,10.656v74.67H95.95v-53.327c5.891,0,10.672-4.781,10.672-10.671
	v-63.999c0-5.89-4.781-10.671-10.672-10.671v-53.326h64.045v74.669l0,0l0,0c0,5.891,4.766,10.672,10.656,10.672h85.342
	c5.891,0,10.656-4.781,10.656-10.672s-4.766-10.656-10.656-10.656h-74.67v-64.013h106.669v85.341l85.295-0.016V319.991z"/>
<g>
	<path style="fill:#E6E9ED;" d="M330.663,458.659c-0.266,0-0.531-0.016-0.797-0.031L41.874,437.284
		c-5.875-0.422-10.281-5.547-9.859-11.422c0.438-5.874,5.547-10.28,11.438-9.843l287.992,21.327
		c5.875,0.438,10.281,5.547,9.844,11.422C340.866,454.378,336.194,458.659,330.663,458.659z"/>
	<path style="fill:#E6E9ED;" d="M42.639,501.314c-5.531,0-10.203-4.266-10.625-9.875c-0.422-5.875,3.984-10.984,9.859-11.422
		l288.008-21.327c5.859-0.438,10.984,3.969,11.422,9.843c0.438,5.875-3.969,10.984-9.859,11.422L43.452,501.283
		C43.171,501.314,42.905,501.314,42.639,501.314z"/>
</g>
<path style="fill:#656D78;" d="M405.316,469.314h-53.325c-5.906,0-10.672-4.765-10.672-10.655s4.766-10.672,10.672-10.672h53.325
	c5.891,0,10.672,4.781,10.672,10.672S411.207,469.314,405.316,469.314z"/>
<path style="fill:#434A54;" d="M351.991,458.659c0,23.562-19.109,42.655-42.672,42.655c-23.562,0-42.67-19.094-42.67-42.655
	c0-23.562,19.108-42.671,42.67-42.671C332.882,415.988,351.991,435.097,351.991,458.659z"/>
<path style="fill:#656D78;" d="M324.397,443.565c8.344,8.328,8.344,21.844,0,30.171c-8.328,8.328-21.828,8.328-30.171,0
	c-8.328-8.327-8.328-21.843,0-30.171C302.569,435.237,316.069,435.237,324.397,443.565z"/>
<path style="fill:#5D9CEC;" d="M0,42.671V74.67h31.999C14.312,74.67,0,60.342,0,42.671z"/>
</svg>