<?xml version="1.0" encoding="UTF-8" standalone="no"?>
<!-- Uploaded to: SVG Repo, www.svgrepo.com, Generator: SVG Repo Mixer Tools -->

<svg
   height="800px"
   width="800px"
   version="1.1"
   id="Layer_1"
   viewBox="0 0 512 512"
   xml:space="preserve"
   sodipodi:docname="exam.svg"
   inkscape:version="1.4 (e7c3feb100, 2024-10-09)"
   xmlns:inkscape="http://www.inkscape.org/namespaces/inkscape"
   xmlns:sodipodi="http://sodipodi.sourceforge.net/DTD/sodipodi-0.dtd"
   xmlns="http://www.w3.org/2000/svg"
   xmlns:svg="http://www.w3.org/2000/svg"><defs
   id="defs24">
	
	

	
	
</defs><sodipodi:namedview
   id="namedview24"
   pagecolor="#ffffff"
   bordercolor="#000000"
   borderopacity="0.25"
   inkscape:showpageshadow="2"
   inkscape:pageopacity="0.0"
   inkscape:pagecheckerboard="0"
   inkscape:deskcolor="#d1d1d1"
   inkscape:zoom="0.54625"
   inkscape:cx="667.27689"
   inkscape:cy="336.84211"
   inkscape:window-width="1302"
   inkscape:window-height="732"
   inkscape:window-x="0"
   inkscape:window-y="0"
   inkscape:window-maximized="1"
   inkscape:current-layer="Layer_1" />
<circle
   style="fill:#125670"
   cx="180.966"
   cy="167.724"
   r="167.724"
   id="circle1" />
<path
   style="fill:#1f77b4"
   d="M342.624,123.586h-11.895c-3.777,0-7.039-2.443-8.301-6.003  C299.788,53.71,235.149,9.714,161.698,18.857C93.805,27.309,39.362,82.618,31.844,150.621  c-10.009,90.54,60.607,167.172,149.121,167.172c8.582,0,16.962-0.799,25.132-2.229c5.337-0.935,10.178,3.266,10.178,8.685v7.403  c75.663-16.225,132.414-83.42,132.414-163.928C348.69,152.423,346.463,137.672,342.624,123.586z"
   id="path1" />
<circle
   style="fill:#FFFFFF;"
   cx="180.966"
   cy="167.724"
   r="132.414"
   id="circle2" />










<path
   style="fill:#000000"
   d="m 180.966,176.552 c -2.259,0 -4.518,-0.862 -6.241,-2.586 l -70.621,-70.621 c -3.448,-3.448 -3.448,-9.035 0,-12.483 3.448,-3.448 9.035,-3.448 12.483,0 l 64.378,64.381 73.207,-73.207 c 3.448,-3.448 9.035,-3.448 12.483,0 3.448,3.448 3.448,9.035 0,12.483 l -79.448,79.448 c -1.724,1.723 -3.983,2.585 -6.241,2.585 z"
   id="path14" />
<circle
   style="fill:#a7a9ac"
   cx="180.966"
   cy="167.724"
   r="17.655001"
   id="circle15" />
<g
   id="g17"
   style="fill:#a7a9ac">
	<path
   style="fill:#a7a9ac"
   d="M85.992,102.702l-15.028-8.68c-3.272,4.874-6.111,10.042-8.723,15.345l14.923,8.619   c1.388,0.806,2.905,1.185,4.405,1.185c3.052,0,6.017-1.582,7.656-4.414C91.663,110.539,90.216,105.138,85.992,102.702z"
   id="path16" />
	<path
   style="fill:#a7a9ac"
   d="M115.939,72.755c1.638,2.831,4.604,4.414,7.656,4.414c1.5,0,3.017-0.38,4.405-1.181   c4.224-2.44,5.673-7.84,3.233-12.061l-8.62-14.93c-5.305,2.613-10.476,5.453-15.351,8.727L115.939,72.755z"
   id="path17" />
</g>
<g
   id="g19"
   style="fill:#a7a9ac">
	<path
   style="fill:#a7a9ac"
   d="M48.998,176.552h17.209c4.879,0,8.828-3.953,8.828-8.828s-3.948-8.828-8.828-8.828H48.998   c-0.194,2.931-0.446,5.847-0.446,8.828S48.803,173.621,48.998,176.552z"
   id="path18" />
	<path
   style="fill:#a7a9ac"
   d="M180.966,35.31c-2.98,0-5.897,0.252-8.828,0.446v17.209c0,4.875,3.948,8.828,8.828,8.828   s8.828-3.953,8.828-8.828V35.756C186.862,35.562,183.946,35.31,180.966,35.31z"
   id="path19" />
</g>
<g
   id="g21"
   style="fill:#a7a9ac">
	<path
   style="fill:#a7a9ac"
   d="M77.164,217.461l-14.923,8.619c2.612,5.303,5.451,10.472,8.723,15.345l15.028-8.68   c4.224-2.435,5.673-7.837,3.233-12.056C86.784,216.466,81.37,215.009,77.164,217.461z"
   id="path20" />
	<path
   style="fill:#a7a9ac"
   d="M128,259.462c-4.215-2.444-9.621-0.995-12.061,3.233l-8.679,15.03   c4.875,3.273,10.046,6.114,15.351,8.727l8.62-14.93C133.673,267.302,132.224,261.901,128,259.462z"
   id="path21" />
</g>
<path
   style="fill:#a7a9ac"
   d="M180.966,273.655c-4.879,0-8.828,3.953-8.828,8.828v17.209c2.931,0.194,5.847,0.446,8.828,0.446  s5.897-0.252,8.828-0.446v-17.209C189.793,277.608,185.845,273.655,180.966,273.655z"
   id="path22" />
<g
   id="g24"
   style="fill:#a7a9ac">
	<path
   style="fill:#a7a9ac"
   d="M239.318,48.998l-8.62,14.93c-2.44,4.22-0.991,9.621,3.233,12.061   c1.388,0.802,2.905,1.181,4.405,1.181c3.052,0,6.017-1.582,7.656-4.414l8.679-15.03C249.794,54.451,244.623,51.61,239.318,48.998z"
   id="path23" />
	<path
   style="fill:#a7a9ac"
   d="M284.767,117.987l14.923-8.619c-2.612-5.303-5.451-10.472-8.723-15.345l-15.028,8.68   c-4.224,2.435-5.673,7.837-3.233,12.056c1.638,2.831,4.604,4.414,7.656,4.414C281.863,119.172,283.38,118.793,284.767,117.987z"
   id="path24" />
</g>
<path
   style="fill:#ffdf42;stroke-width:1"
   d="m 244.25383,155.59234 c 0,-7.03015 5.69853,-12.72868 12.72868,-12.72868 h 190.93237 l 63.64413,63.64412 v 292.76254 c 0,7.03015 -5.69853,12.72868 -12.72868,12.72868 H 256.98251 c -7.03015,0 -12.72868,-5.69853 -12.72868,-12.72868 z"
   id="path1-6" /><path
   style="fill:#ff7f0e;stroke-width:1"
   d="m 447.91416,142.86366 v 50.91544 c 0,7.02944 5.69925,12.72868 12.72868,12.72868 h 50.91545 z"
   id="path2" /><g
   id="g4"
   style="stroke-width:1.38703"
   transform="matrix(0.72096746,0,0,0.72096746,193.33839,142.86366)">
	<path
   style="fill:#d62728;stroke-width:1.38703"
   d="m 312.657,185.379 5.448,19.975 c 1.069,3.932 4.629,6.508 8.509,6.508 0.776,0 1.551,-0.095 2.327,-0.31 4.707,-1.284 7.482,-6.138 6.198,-10.836 L 311.32,113.354 c -2.63,-9.569 -11.38,-16.25 -21.293,-16.25 H 274.94 c -9.913,0 -18.664,6.681 -21.293,16.267 l -23.819,87.345 c -1.284,4.698 1.492,9.551 6.198,10.836 4.655,1.293 9.551,-1.483 10.836,-6.198 l 5.449,-19.974 h 60.346 z m -41.976,-67.353 c 0.526,-1.922 2.276,-3.267 4.258,-3.267 h 15.086 c 1.983,0 3.733,1.345 4.258,3.25 l 13.558,49.716 h -50.717 z"
   id="path3-7" />
	<path
   style="fill:#d62728;stroke-width:1.38703"
   d="m 388.414,150.069 h -8.828 v -8.828 c 0,-4.879 -3.948,-8.828 -8.828,-8.828 -4.879,0 -8.828,3.948 -8.828,8.828 v 8.828 h -8.828 c -4.879,0 -8.828,3.948 -8.828,8.828 0,4.879 3.948,8.828 8.828,8.828 h 8.828 v 8.828 c 0,4.879 3.948,8.828 8.828,8.828 4.879,0 8.828,-3.948 8.828,-8.828 v -8.828 h 8.828 c 4.879,0 8.828,-3.948 8.828,-8.828 -0.001,-4.88 -3.949,-8.828 -8.828,-8.828 z"
   id="path4-5" />
</g><path
   style="fill:#000000;stroke-width:1"
   d="m 467.00754,340.16001 h -89.10148 c -3.5176,0 -6.3647,2.84638 -6.3647,6.3647 0,3.51832 2.84638,6.3647 6.3647,6.3647 h 89.10148 c 3.5176,0 6.36471,-2.84638 6.36471,-6.3647 0,-3.51832 -2.84638,-6.3647 -6.36471,-6.3647 z"
   id="path5-3" /><path
   style="fill:#000000;stroke-width:1"
   d="m 377.90606,378.34677 h 50.91544 c 3.5176,0 6.3647,-2.84638 6.3647,-6.3647 0,-3.5176 -2.84638,-6.3647 -6.3647,-6.3647 h -50.91544 c -3.5176,0 -6.3647,2.84638 -6.3647,6.3647 0,3.51832 2.8471,6.3647 6.3647,6.3647 z"
   id="path6-5" /><path
   style="fill:#d62728;stroke-width:1"
   d="m 341.25496,329.65624 -33.02824,38.52201 -14.33284,-19.10564 c -2.11315,-2.82187 -6.09722,-3.38134 -8.90611,-1.27467 -2.81537,2.10667 -3.3871,6.09722 -1.27467,8.90611 l 19.09338,25.45736 c 1.15572,1.5472 2.95237,2.47941 4.88528,2.54213 0.0685,0.007 0.13698,0.007 0.20548,0.007 1.85216,0 3.62358,-0.8082 4.82904,-2.2249 l 38.18676,-44.55075 c 2.2934,-2.66685 1.98266,-6.6812 -0.68997,-8.96811 -2.66037,-2.28763 -6.68048,-1.98915 -8.96811,0.68925 z"
   id="path7-6" /><path
   style="fill:#000000;stroke-width:1"
   d="m 467.00754,416.53281 h -89.10148 c -3.5176,0 -6.3647,2.84638 -6.3647,6.36471 0,3.51832 2.84638,6.3647 6.3647,6.3647 h 89.10148 c 3.5176,0 6.36471,-2.84638 6.36471,-6.3647 0,-3.51833 -2.84638,-6.36471 -6.36471,-6.36471 z"
   id="path8-2" /><path
   style="fill:#000000;stroke-width:1"
   d="m 428.8215,441.9909 h -50.91544 c -3.5176,0 -6.3647,2.84638 -6.3647,6.3647 0,3.5176 2.84638,6.3647 6.3647,6.3647 h 50.91544 c 3.5176,0 6.3647,-2.84638 6.3647,-6.3647 -7.2e-4,-3.51832 -2.8471,-6.3647 -6.3647,-6.3647 z"
   id="path9-9" /><path
   style="fill:#d62728;stroke-width:1"
   d="m 341.25496,406.02904 -33.02824,38.52201 -14.33284,-19.10564 c -2.11315,-2.82186 -6.09722,-3.3871 -8.90611,-1.27467 -2.81537,2.10667 -3.3871,6.09723 -1.27467,8.90611 l 19.09338,25.45737 c 1.15572,1.54719 2.95237,2.4794 4.88528,2.54213 0.0685,0.007 0.13698,0.007 0.20548,0.007 1.85216,0 3.62358,-0.80821 4.82904,-2.22491 l 38.18676,-44.55074 c 2.2934,-2.66686 1.98266,-6.68121 -0.68997,-8.96812 -2.66037,-2.28763 -6.68048,-1.98266 -8.96811,0.68925 z"
   id="path10-1" /><path
   style="fill:#000000;stroke-width:1"
   d="m 352.4487,200.14308 h -63.64412 c -3.5176,0 -6.36471,2.84638 -6.36471,6.3647 0,3.5176 2.84638,6.3647 6.36471,6.3647 h 63.64412 c 3.5176,0 6.3647,-2.84638 6.3647,-6.3647 -7.2e-4,-3.51832 -2.8471,-6.3647 -6.3647,-6.3647 z"
   id="path11-2" /><path
   style="fill:#000000;stroke-width:1"
   d="m 288.80458,238.32985 h 38.18676 c 3.5176,0 6.3647,-2.84638 6.3647,-6.36471 0,-3.5176 -2.84638,-6.3647 -6.3647,-6.3647 h -38.18676 c -3.5176,0 -6.36471,2.84638 -6.36471,6.3647 0,3.51833 2.84638,6.36471 6.36471,6.36471 z"
   id="path12-7" /></svg>
