<?xml version="1.0" encoding="UTF-8" standalone="no"?>
<!-- Uploaded to: SVG Repo, www.svgrepo.com, Generator: SVG Repo Mixer Tools -->

<svg
   height="564.5"
   width="509.47501"
   version="1.1"
   id="Layer_1"
   viewBox="0 0 326.064 361.28"
   xml:space="preserve"
   sodipodi:docname="gold.svg"
   inkscape:version="1.3.2 (091e20ef0f, 2023-11-25, custom)"
   xmlns:inkscape="http://www.inkscape.org/namespaces/inkscape"
   xmlns:sodipodi="http://sodipodi.sourceforge.net/DTD/sodipodi-0.dtd"
   xmlns="http://www.w3.org/2000/svg"
   xmlns:svg="http://www.w3.org/2000/svg"><defs
   id="defs102" /><sodipodi:namedview
   id="namedview102"
   pagecolor="#ffffff"
   bordercolor="#000000"
   borderopacity="0.25"
   inkscape:showpageshadow="2"
   inkscape:pageopacity="0.0"
   inkscape:pagecheckerboard="0"
   inkscape:deskcolor="#d1d1d1"
   inkscape:zoom="0.73375"
   inkscape:cx="108.34753"
   inkscape:cy="271.20954"
   inkscape:window-width="2560"
   inkscape:window-height="1406"
   inkscape:window-x="0"
   inkscape:window-y="0"
   inkscape:window-maximized="1"
   inkscape:current-layer="Layer_1" />































<g
   id="g103"><path
     style="fill:#ffc066"
     d="m 325.948,310.224 c 0,20.712 -43.1,37 -96.116,37 -53.024,0 -95.88,-16.288 -95.88,-37 v -41.5 h 192 v 41.5 z"
     id="path2" /><g
     id="g11"
     transform="translate(-92.968,-75.36)">
	<path
   style="fill:#f2b155"
   d="m 419.032,344.084 c 0,20.712 -43.1,38.5 -96.116,38.5 -53.024,0 -95.884,-17.788 -95.884,-38.5 0,-20.716 42.976,-37.5 96,-37.5 53.016,0 96,16.788 96,37.5 z"
   id="path3" />
	<path
   style="fill:#f2b155"
   d="m 386.916,380.908 c -2.588,0.876 -5.252,1.704 -8,2.46 v 24.016 c 2.82,-0.828 5.524,-1.696 8,-2.616 z"
   id="path4" />
	<path
   style="fill:#f2b155"
   d="m 362.916,387.008 c -2.64,0.476 -5.296,0.92 -8,1.312 v 24.092 c 2.756,-0.388 5.42,-0.804 8,-1.28 z"
   id="path5" />
	<path
   style="fill:#f2b155"
   d="m 330.916,414.42 c 2.74,-0.084 5.384,-0.228 8,-0.396 V 390 c -2.664,0.188 -5.328,0.328 -8,0.42 z"
   id="path6" />
	<path
   style="fill:#f2b155"
   d="m 290.916,388.308 c -2.704,-0.388 -5.368,-0.836 -8,-1.32 v 24.172 c 2.576,0.472 5.248,0.896 8,1.276 z"
   id="path7" />
	<path
   style="fill:#f2b155"
   d="m 242.916,396.632 v -22.524 c -2.884,-1.524 -5.564,-3.136 -8,-4.844 v 16.312 c 0,3.472 2.82,7.324 8,11.056 z"
   id="path8" />
	<path
   style="fill:#f2b155"
   d="m 258.916,404.788 c 2.476,0.916 5.172,1.788 8,2.616 V 383.32 c -2.752,-0.76 -5.416,-1.588 -8,-2.476 z"
   id="path9" />
	<path
   style="fill:#f2b155"
   d="m 402.916,396.616 c 5.18,-3.74 8,-7.584 8,-11.04 v -16.172 c -2.444,1.696 -5.124,3.292 -8,4.796 z"
   id="path10" />
	<path
   style="fill:#f2b155"
   d="m 314.916,390.42 c -2.672,-0.092 -5.344,-0.244 -8,-0.424 v 24.044 c 2.608,0.168 5.264,0.304 8,0.392 z"
   id="path11" />
</g><path
     style="fill:#ffc066"
     d="m 317.948,262.368 c 0,20.712 -43.1,37 -96.116,37 -53.024,0 -95.88,-16.288 -95.88,-37 v -41.5 h 192 v 41.5 z"
     id="path12" /><g
     id="g21"
     transform="translate(-92.968,-75.36)">
	<path
   style="fill:#f2b155"
   d="m 411.032,296.228 c 0,20.712 -43.1,38.5 -96.116,38.5 -53.024,0 -95.884,-17.788 -95.884,-38.5 0,-20.712 42.976,-37.5 96,-37.5 53.016,0 96,16.788 96,37.5 z"
   id="path13" />
	<path
   style="fill:#f2b155"
   d="m 378.916,333.048 c -2.588,0.876 -5.252,1.704 -8,2.464 v 24.016 c 2.82,-0.832 5.524,-1.696 8,-2.612 z"
   id="path14" />
	<path
   style="fill:#f2b155"
   d="m 354.916,339.148 c -2.64,0.484 -5.296,0.928 -8,1.316 v 24.096 c 2.756,-0.388 5.42,-0.812 8,-1.28 z"
   id="path15" />
	<path
   style="fill:#f2b155"
   d="m 322.916,366.572 c 2.74,-0.084 5.384,-0.228 8,-0.4 v -24.028 c -2.664,0.184 -5.328,0.332 -8,0.424 z"
   id="path16" />
	<path
   style="fill:#f2b155"
   d="m 282.916,340.452 c -2.704,-0.392 -5.368,-0.836 -8,-1.32 v 24.172 c 2.576,0.468 5.248,0.896 8,1.272 z"
   id="path17" />
	<path
   style="fill:#f2b155"
   d="m 234.916,348.78 v -22.532 c -2.884,-1.516 -5.564,-3.132 -8,-4.844 v 16.32 c 0,3.464 2.82,7.316 8,11.056 z"
   id="path18" />
	<path
   style="fill:#f2b155"
   d="m 250.916,356.928 c 2.476,0.92 5.172,1.788 8,2.624 v -24.084 c -2.752,-0.768 -5.416,-1.6 -8,-2.48 z"
   id="path19" />
	<path
   style="fill:#f2b155"
   d="m 394.916,348.764 c 5.18,-3.74 8,-7.584 8,-11.04 v -16.172 c -2.444,1.688 -5.124,3.284 -8,4.792 z"
   id="path20" />
	<path
   style="fill:#f2b155"
   d="m 306.916,342.572 c -2.672,-0.088 -5.344,-0.244 -8,-0.424 v 24.048 c 2.608,0.164 5.264,0.304 8,0.388 z"
   id="path21" />
</g><path
     style="fill:#ffc066"
     d="m 325.948,214.532 c 0,20.712 -43.1,37 -96.116,37 -53.024,0 -95.88,-16.288 -95.88,-37 v -41.5 h 192 v 41.5 z"
     id="path22" /><g
     id="g31"
     transform="translate(-92.968,-75.36)">
	<path
   style="fill:#f2b155"
   d="m 419.032,248.392 c 0,20.708 -43.1,38.5 -96.116,38.5 -53.024,0 -95.884,-17.788 -95.884,-38.5 0,-20.712 42.976,-37.5 96,-37.5 53.016,0 96,16.788 96,37.5 z"
   id="path23" />
	<path
   style="fill:#f2b155"
   d="m 386.916,285.212 c -2.588,0.876 -5.252,1.704 -8,2.464 v 24.016 c 2.82,-0.832 5.524,-1.696 8,-2.612 z"
   id="path24" />
	<path
   style="fill:#f2b155"
   d="m 362.916,291.312 c -2.64,0.484 -5.296,0.928 -8,1.316 v 24.096 c 2.756,-0.388 5.42,-0.812 8,-1.28 z"
   id="path25" />
	<path
   style="fill:#f2b155"
   d="m 330.916,318.736 c 2.74,-0.084 5.384,-0.228 8,-0.4 v -24.028 c -2.664,0.184 -5.328,0.332 -8,0.424 z"
   id="path26" />
	<path
   style="fill:#f2b155"
   d="m 290.916,292.616 c -2.704,-0.392 -5.368,-0.836 -8,-1.32 v 24.172 c 2.576,0.468 5.248,0.896 8,1.272 z"
   id="path27" />
	<path
   style="fill:#f2b155"
   d="m 242.916,300.944 v -22.532 c -2.884,-1.516 -5.564,-3.132 -8,-4.844 v 16.32 c 0,3.464 2.82,7.316 8,11.056 z"
   id="path28" />
	<path
   style="fill:#f2b155"
   d="m 258.916,309.092 c 2.476,0.92 5.172,1.788 8,2.624 v -24.084 c -2.752,-0.768 -5.416,-1.6 -8,-2.48 z"
   id="path29" />
	<path
   style="fill:#f2b155"
   d="m 402.916,300.928 c 5.18,-3.74 8,-7.584 8,-11.04 V 273.72 c -2.444,1.696 -5.124,3.288 -8,4.796 z"
   id="path30" />
	<path
   style="fill:#f2b155"
   d="m 314.916,294.736 c -2.672,-0.088 -5.344,-0.244 -8,-0.424 v 24.048 c 2.608,0.164 5.264,0.304 8,0.388 z"
   id="path31" />
</g><path
     style="fill:#ffc066"
     d="m 325.948,166.696 c 0,20.708 -43.1,37 -96.116,37 -53.024,0 -95.88,-16.288 -95.88,-37 v -41.5 h 192 v 41.5 z"
     id="path32" /><g
     id="g41"
     transform="translate(-92.968,-75.36)">
	<path
   style="fill:#f2b155"
   d="m 419.032,200.556 c 0,20.712 -43.1,38.5 -96.116,38.5 -53.024,0 -95.884,-17.788 -95.884,-38.5 0,-20.712 42.976,-37.5 96,-37.5 53.016,0 96,16.788 96,37.5 z"
   id="path33" />
	<path
   style="fill:#f2b155"
   d="m 386.916,237.376 c -2.588,0.876 -5.252,1.704 -8,2.464 v 24.016 c 2.82,-0.832 5.524,-1.696 8,-2.612 z"
   id="path34" />
	<path
   style="fill:#f2b155"
   d="m 362.916,243.476 c -2.64,0.484 -5.296,0.928 -8,1.316 v 24.096 c 2.756,-0.388 5.42,-0.812 8,-1.28 z"
   id="path35" />
	<path
   style="fill:#f2b155"
   d="m 330.916,270.9 c 2.74,-0.084 5.384,-0.228 8,-0.4 v -24.028 c -2.664,0.184 -5.328,0.332 -8,0.424 z"
   id="path36" />
	<path
   style="fill:#f2b155"
   d="m 290.916,244.78 c -2.704,-0.388 -5.368,-0.836 -8,-1.32 v 24.172 c 2.576,0.468 5.248,0.896 8,1.272 z"
   id="path37" />
	<path
   style="fill:#f2b155"
   d="M 242.916,253.108 V 230.58 c -2.884,-1.516 -5.564,-3.132 -8,-4.844 v 16.32 c 0,3.46 2.82,7.312 8,11.052 z"
   id="path38" />
	<path
   style="fill:#f2b155"
   d="m 258.916,261.256 c 2.476,0.92 5.172,1.788 8,2.62 v -24.08 c -2.752,-0.768 -5.416,-1.6 -8,-2.48 z"
   id="path39" />
	<path
   style="fill:#f2b155"
   d="m 402.916,253.092 c 5.18,-3.736 8,-7.58 8,-11.04 v -16.168 c -2.444,1.692 -5.124,3.288 -8,4.796 z"
   id="path40" />
	<path
   style="fill:#f2b155"
   d="m 314.916,246.9 c -2.672,-0.092 -5.344,-0.244 -8,-0.428 v 24.048 c 2.608,0.164 5.264,0.304 8,0.388 z"
   id="path41" />
</g><path
     style="fill:#ffc066"
     d="m 313.948,120.848 c 0,20.712 -43.1,37 -96.116,37 -53.02,0 -95.88,-16.288 -95.88,-37 v -41.5 h 192 v 41.5 z"
     id="path42" /><path
     style="fill:#ffdc80"
     d="m 314.064,79.348 c 0,20.712 -43.1,38.5 -96.116,38.5 -53.024,0 -95.884,-17.788 -95.884,-38.5 0,-20.712 42.976,-37.5 96,-37.5 53.016,0 96,16.788 96,37.5 z"
     id="path43" /><path
     style="fill:#f2b255"
     d="m 298.368,79.348 c 0,14.084 -36.072,26.5 -80.42,26.5 -44.348,0 -80.188,-12.416 -80.188,-26.5 0,-14.084 35.952,-25.5 80.304,-25.5 44.352,0 80.304,11.416 80.304,25.5 z"
     id="path44" /><path
     style="fill:#e6a951"
     d="m 141.948,83.348 c 0,-14.084 35.952,-25.5 80.304,-25.5 33.008,0 61.336,6.328 73.68,15.368 -8.656,-11.116 -40.188,-19.368 -77.868,-19.368 -44.352,0 -80.304,11.416 -80.304,25.5 0,3.656 2.452,7.188 6.796,10.428 -1.64,-2.076 -2.608,-4.228 -2.608,-6.428 z"
     id="path45" /><g
     id="g53"
     transform="translate(-92.968,-75.36)">
	<path
   style="fill:#f2b155"
   d="m 374.916,191.528 c -2.588,0.876 -5.252,1.7 -8,2.464 v 24.016 c 2.82,-0.828 5.524,-1.696 8,-2.616 z"
   id="path46" />
	<path
   style="fill:#f2b155"
   d="m 350.916,197.632 c -2.64,0.48 -5.296,0.928 -8,1.316 v 24.096 c 2.756,-0.388 5.42,-0.808 8,-1.284 z"
   id="path47" />
	<path
   style="fill:#f2b155"
   d="m 318.916,225.052 c 2.74,-0.084 5.384,-0.228 8,-0.396 v -24.032 c -2.664,0.188 -5.328,0.328 -8,0.416 z"
   id="path48" />
	<path
   style="fill:#f2b155"
   d="m 278.916,198.932 c -2.704,-0.388 -5.368,-0.836 -8,-1.32 v 24.172 c 2.576,0.472 5.248,0.896 8,1.276 z"
   id="path49" />
	<path
   style="fill:#f2b155"
   d="m 230.916,207.256 v -22.524 c -2.884,-1.52 -5.564,-3.136 -8,-4.844 v 16.32 c 0,3.46 2.82,7.316 8,11.048 z"
   id="path50" />
	<path
   style="fill:#f2b155"
   d="m 246.916,215.416 c 2.476,0.92 5.172,1.788 8,2.616 v -24.076 c -2.752,-0.768 -5.416,-1.596 -8,-2.48 z"
   id="path51" />
	<path
   style="fill:#f2b155"
   d="m 390.916,207.244 c 5.18,-3.736 8,-7.576 8,-11.036 v -16.172 c -2.444,1.692 -5.124,3.292 -8,4.8 z"
   id="path52" />
	<path
   style="fill:#f2b155"
   d="m 302.916,201.048 c -2.672,-0.092 -5.344,-0.24 -8,-0.424 v 24.044 c 2.608,0.168 5.264,0.304 8,0.392 z"
   id="path53" />
</g><path
     style="fill:#ffc066"
     d="m 325.948,79 c 0,20.712 -43.1,37 -96.116,37 -53.024,0 -95.88,-16.288 -95.88,-37 V 37.5 h 192 V 79 Z"
     id="path54" /><path
     style="fill:#ffdc80"
     d="m 326.064,37.5 c 0,20.712 -43.1,38.5 -96.116,38.5 -53.024,0 -95.884,-17.788 -95.884,-38.5 0,-20.712 42.976,-37.5 96,-37.5 53.016,0 96,16.788 96,37.5 z"
     id="path55" /><path
     style="fill:#ffc066"
     d="m 310.368,37.5 c 0,14.084 -36.072,26.5 -80.42,26.5 C 185.6,64 149.76,51.584 149.76,37.5 c 0,-14.084 35.952,-25.5 80.304,-25.5 44.352,0 80.304,11.416 80.304,25.5 z"
     id="path56" /><g
     id="g66"
     transform="translate(-92.968,-75.36)">
	<path
   style="fill:#f2b155"
   d="m 246.916,116.86 c 0,-14.084 35.952,-25.5 80.304,-25.5 33.008,0 61.336,6.328 73.68,15.368 -8.656,-11.116 -40.188,-19.368 -77.868,-19.368 -44.352,0 -80.304,11.416 -80.304,25.5 0,3.656 2.452,7.188 6.796,10.428 -1.64,-2.076 -2.608,-4.228 -2.608,-6.428 z"
   id="path57" />
	<path
   style="fill:#f2b155"
   d="m 386.916,149.68 c -2.588,0.876 -5.252,1.7 -8,2.464 v 24.016 c 2.82,-0.832 5.524,-1.696 8,-2.616 z"
   id="path58" />
	<path
   style="fill:#f2b155"
   d="m 362.916,155.784 c -2.64,0.48 -5.296,0.928 -8,1.316 v 24.096 c 2.756,-0.384 5.42,-0.812 8,-1.284 z"
   id="path59" />
	<path
   style="fill:#f2b155"
   d="m 330.916,183.204 c 2.74,-0.084 5.384,-0.228 8,-0.396 V 158.78 c -2.664,0.184 -5.328,0.332 -8,0.424 z"
   id="path60" />
	<path
   style="fill:#f2b155"
   d="m 290.916,157.084 c -2.704,-0.388 -5.368,-0.836 -8,-1.32 v 24.172 c 2.576,0.472 5.248,0.896 8,1.276 z"
   id="path61" />
	<path
   style="fill:#f2b155"
   d="m 242.916,165.412 v -22.528 c -2.884,-1.52 -5.564,-3.136 -8,-4.844 v 16.32 c 0,3.464 2.82,7.312 8,11.052 z"
   id="path62" />
	<path
   style="fill:#f2b155"
   d="m 258.916,173.564 c 2.476,0.924 5.172,1.792 8,2.62 v -24.08 c -2.752,-0.768 -5.416,-1.596 -8,-2.48 z"
   id="path63" />
	<path
   style="fill:#f2b155"
   d="m 402.916,165.396 c 5.18,-3.736 8,-7.58 8,-11.036 v -16.172 c -2.444,1.692 -5.124,3.292 -8,4.8 z"
   id="path64" />
	<path
   style="fill:#f2b155"
   d="m 314.916,159.2 c -2.672,-0.092 -5.344,-0.24 -8,-0.428 v 24.044 c 2.608,0.168 5.264,0.304 8,0.388 z"
   id="path65" />
	<path
   style="fill:#f2b155"
   d="m 293.084,296.072 v -23.768 h -0.116 c 0,-16.624 -27.704,-30.716 -66.052,-35.628 v 5.388 c 0,1.172 0.156,2.328 0.424,3.468 -0.184,0.948 -0.308,1.904 -0.308,2.868 h -0.116 v 32.944 c -5.064,4.568 -7.884,9.596 -7.884,14.896 h -0.116 v 41.5 c 0,5.336 2.868,10.376 8,14.92 v 32.928 c 0,14.64 21.428,27.064 52.716,33.084 8.54,-5.532 13.452,-12.028 13.452,-19.032 v -25.944 c 7.636,-5.316 12,-11.46 12,-18.056 v -41.5 h -0.116 c 0,-6.556 -4.32,-12.72 -11.884,-18.068 z"
   id="path66" />
</g><path
     style="fill:#ffc066"
     d="m 0.12,324.28 c 0,20.712 43.092,37 96.116,37 53.016,0 95.884,-16.288 95.884,-37 v -41.5 h -192 z"
     id="path67" /><path
     style="fill:#ffdc80"
     d="m 0,282.78 c 0,20.712 43.092,38.5 96.116,38.5 53.016,0 95.884,-17.788 95.884,-38.5 0,-20.712 -42.984,-37.5 -96,-37.5 -53.02,0 -96,16.788 -96,37.5 z"
     id="path68" /><path
     style="fill:#f2b255"
     d="m 15.696,282.78 c 0,14.084 36.072,26.5 80.42,26.5 44.348,0 80.188,-12.416 80.188,-26.5 0,-14.08 -35.952,-25.5 -80.308,-25.5 -44.348,0 -80.3,11.424 -80.3,25.5 z"
     id="path69" /><path
     style="fill:#e6a951"
     d="m 172.116,286.78 c 0,-14.08 -35.952,-25.5 -80.304,-25.5 -33.008,0 -61.336,6.328 -73.688,15.376 C 26.788,265.54 58.312,257.28 96,257.28 c 44.352,0 80.304,11.42 80.304,25.5 0,3.656 -2.448,7.188 -6.804,10.428 1.648,-2.076 2.616,-4.224 2.616,-6.428 z"
     id="path70" /><path
     style="fill:#ffc066"
     d="m 12.12,280.28 c 0,20.712 43.092,37 96.116,37 53.016,0 95.884,-16.288 95.884,-37 v -41.5 h -192 z"
     id="path71" /><path
     style="fill:#f2b155"
     d="m 12,238.78 c 0,20.712 43.092,38.5 96.116,38.5 53.016,0 95.884,-17.788 95.884,-38.5 0,-20.712 -42.984,-37.5 -96,-37.5 -53.02,0 -96,16.788 -96,37.5 z"
     id="path72" /><path
     style="fill:#f2b255"
     d="m 27.696,238.78 c 0,14.084 36.072,26.5 80.42,26.5 44.348,0 80.188,-12.416 80.188,-26.5 0,-14.08 -35.952,-25.5 -80.308,-25.5 -44.348,0 -80.3,11.424 -80.3,25.5 z"
     id="path73" /><path
     style="fill:#e6a951"
     d="m 184.116,242.78 c 0,-14.08 -35.952,-25.5 -80.304,-25.5 -33.008,0 -61.336,6.328 -73.688,15.376 C 38.788,221.54 70.312,213.28 108,213.28 c 44.352,0 80.304,11.42 80.304,25.5 0,3.656 -2.448,7.188 -6.804,10.428 1.648,-2.076 2.616,-4.224 2.616,-6.428 z"
     id="path74" /><g
     id="g90"
     transform="translate(-92.968,-75.36)">
	<path
   style="fill:#f2b155"
   d="m 125.088,394.968 c 2.584,0.876 5.252,1.696 8,2.46 v 24.016 c -2.828,-0.828 -5.532,-1.696 -8,-2.616 z"
   id="path75" />
	<path
   style="fill:#f2b155"
   d="m 149.088,401.072 c 2.632,0.476 5.296,0.92 8,1.312 v 24.092 c -2.756,-0.384 -5.428,-0.804 -8,-1.28 z"
   id="path76" />
	<path
   style="fill:#f2b155"
   d="m 181.088,428.484 c -2.736,-0.084 -5.392,-0.228 -8,-0.392 V 404.06 c 2.656,0.188 5.328,0.328 8,0.416 z"
   id="path77" />
	<path
   style="fill:#f2b155"
   d="m 221.088,402.368 c 2.704,-0.384 5.36,-0.836 8,-1.32 v 24.172 c -2.58,0.476 -5.244,0.9 -8,1.28 z"
   id="path78" />
	<path
   style="fill:#f2b155"
   d="m 269.084,410.696 v -22.524 c 2.884,-1.524 5.564,-3.14 8,-4.844 v 16.312 c 0,3.468 -2.82,7.32 -8,11.056 z"
   id="path79" />
	<path
   style="fill:#f2b155"
   d="m 253.088,418.852 c -2.476,0.92 -5.18,1.788 -8,2.616 v -24.08 c 2.744,-0.764 5.408,-1.592 8,-2.476 z"
   id="path80" />
	<path
   style="fill:#f2b155"
   d="m 109.088,410.68 c -5.18,-3.736 -8,-7.58 -8,-11.04 v -16.172 c 2.436,1.696 5.116,3.296 8,4.796 z"
   id="path81" />
	<path
   style="fill:#f2b155"
   d="m 197.088,404.484 c 2.672,-0.092 5.336,-0.244 8,-0.428 v 24.048 c -2.616,0.164 -5.264,0.304 -8,0.396 z"
   id="path82" />
	<path
   style="fill:#f2b155"
   d="m 137.088,350.968 c 2.584,0.876 5.252,1.696 8,2.46 v 24.016 c -2.828,-0.828 -5.532,-1.696 -8,-2.616 z"
   id="path83" />
	<path
   style="fill:#f2b155"
   d="m 161.088,357.072 c 2.632,0.476 5.296,0.92 8,1.312 v 24.092 c -2.756,-0.384 -5.428,-0.804 -8,-1.28 z"
   id="path84" />
	<path
   style="fill:#f2b155"
   d="m 193.088,384.484 c -2.736,-0.084 -5.392,-0.228 -8,-0.392 V 360.06 c 2.656,0.188 5.328,0.328 8,0.416 z"
   id="path85" />
	<path
   style="fill:#f2b155"
   d="m 233.088,358.368 c 2.704,-0.384 5.36,-0.836 8,-1.32 v 24.172 c -2.58,0.476 -5.244,0.9 -8,1.28 z"
   id="path86" />
	<path
   style="fill:#f2b155"
   d="m 281.084,366.696 v -22.524 c 2.884,-1.524 5.564,-3.14 8,-4.844 v 16.312 c 0,3.468 -2.82,7.32 -8,11.056 z"
   id="path87" />
	<path
   style="fill:#f2b155"
   d="m 265.084,374.852 c -2.476,0.92 -5.18,1.788 -8,2.616 v -24.08 c 2.744,-0.764 5.408,-1.592 8,-2.476 z"
   id="path88" />
	<path
   style="fill:#f2b155"
   d="m 121.088,366.68 c -5.18,-3.736 -8,-7.58 -8,-11.04 v -16.172 c 2.436,1.696 5.116,3.296 8,4.796 z"
   id="path89" />
	<path
   style="fill:#f2b155"
   d="m 209.088,360.484 c 2.672,-0.092 5.336,-0.244 8,-0.428 v 24.048 c -2.616,0.164 -5.264,0.304 -8,0.396 z"
   id="path90" />
</g><path
     style="fill:#ffc066"
     d="m 0.12,238.436 c 0,20.712 43.092,37 96.116,37 53.016,0 95.884,-16.288 95.884,-37 v -41.5 h -192 z"
     id="path91" /><path
     style="fill:#ffdc80"
     d="m 0,196.936 c 0,20.712 43.092,38.5 96.116,38.5 53.016,0 95.884,-17.788 95.884,-38.5 0,-20.712 -42.984,-37.5 -96,-37.5 -53.02,0 -96,16.788 -96,37.5 z"
     id="path92" /><path
     style="fill:#ffc066"
     d="m 15.696,196.936 c 0,14.084 36.072,26.5 80.42,26.5 44.348,0 80.188,-12.416 80.188,-26.5 0,-14.084 -35.952,-25.5 -80.308,-25.5 -44.348,0 -80.3,11.416 -80.3,25.5 z"
     id="path93" /><g
     id="g102"
     transform="translate(-92.968,-75.36)">
	<path
   style="fill:#f2b155"
   d="m 120.664,272.296 c 0,-13.444 32.764,-24.424 74.304,-25.404 -1.988,-0.048 -3.976,-0.096 -6,-0.096 -44.352,0 -80.304,11.416 -80.304,25.5 0,14.084 36.072,26.5 80.42,26.5 2.024,0 4.012,-0.056 6,-0.104 -41.548,-1.06 -74.42,-12.956 -74.42,-26.396 z"
   id="path94" />
	<path
   style="fill:#f2b155"
   d="m 125.088,309.116 c 2.584,0.876 5.252,1.704 8,2.46 v 24.016 c -2.828,-0.828 -5.532,-1.696 -8,-2.616 z"
   id="path95" />
	<path
   style="fill:#f2b155"
   d="m 149.088,315.22 c 2.632,0.484 5.296,0.928 8,1.312 v 24.1 c -2.756,-0.384 -5.428,-0.812 -8,-1.28 z"
   id="path96" />
	<path
   style="fill:#f2b155"
   d="m 181.088,342.64 c -2.736,-0.084 -5.392,-0.228 -8,-0.4 v -24.036 c 2.656,0.192 5.328,0.336 8,0.428 z"
   id="path97" />
	<path
   style="fill:#f2b155"
   d="m 221.088,316.524 c 2.704,-0.392 5.36,-0.836 8,-1.32 v 24.172 c -2.58,0.468 -5.244,0.892 -8,1.272 z"
   id="path98" />
	<path
   style="fill:#f2b155"
   d="M 269.084,324.852 V 302.32 c 2.884,-1.516 5.564,-3.132 8,-4.844 v 16.32 c 0,3.46 -2.82,7.312 -8,11.056 z"
   id="path99" />
	<path
   style="fill:#f2b155"
   d="m 253.088,333 c -2.476,0.92 -5.18,1.788 -8,2.624 V 311.54 c 2.744,-0.768 5.408,-1.596 8,-2.48 z"
   id="path100" />
	<path
   style="fill:#f2b155"
   d="m 109.088,324.836 c -5.18,-3.736 -8,-7.58 -8,-11.04 v -16.172 c 2.436,1.688 5.116,3.288 8,4.796 z"
   id="path101" />
	<path
   style="fill:#f2b155"
   d="m 197.088,318.64 c 2.672,-0.092 5.336,-0.244 8,-0.428 v 24.048 c -2.616,0.164 -5.264,0.304 -8,0.388 z"
   id="path102" />
</g></g>
</svg>
