<?xml version="1.0" encoding="UTF-8" standalone="no"?>
<svg
   xmlns:dc="http://purl.org/dc/elements/1.1/"
   xmlns:cc="http://creativecommons.org/ns#"
   xmlns:rdf="http://www.w3.org/1999/02/22-rdf-syntax-ns#"
   xmlns:svg="http://www.w3.org/2000/svg"
   xmlns="http://www.w3.org/2000/svg"
   xmlns:sodipodi="http://sodipodi.sourceforge.net/DTD/sodipodi-0.dtd"
   xmlns:inkscape="http://www.inkscape.org/namespaces/inkscape"
   version="1.1"
   id="Layer_1"
   x="0px"
   y="0px"
   viewBox="0 0 256 256"
   xml:space="preserve"
   sodipodi:docname="labs.svg"
   width="256"
   height="256"
   inkscape:version="1.0.1 (3bc2e813f5, 2020-09-07)"><metadata
   id="metadata83"><rdf:RDF><cc:Work
       rdf:about=""><dc:format>image/svg+xml</dc:format><dc:type
         rdf:resource="http://purl.org/dc/dcmitype/StillImage" /></cc:Work></rdf:RDF></metadata><defs
   id="defs81" /><sodipodi:namedview
   pagecolor="#ffffff"
   bordercolor="#666666"
   borderopacity="1"
   objecttolerance="10"
   gridtolerance="10"
   guidetolerance="10"
   inkscape:pageopacity="0"
   inkscape:pageshadow="2"
   inkscape:window-width="1920"
   inkscape:window-height="991"
   id="namedview79"
   showgrid="false"
   inkscape:zoom="1.3378906"
   inkscape:cx="261.97923"
   inkscape:cy="255.994"
   inkscape:window-x="0"
   inkscape:window-y="0"
   inkscape:window-maximized="1"
   inkscape:current-layer="Layer_1" />








<g
   id="g108"
   transform="matrix(0.50000032,0,0,0.50001172,-1.6589799e-4,-0.00300007)"><path
     style="fill:#003da8"
     d="M 313.388,459.946 239.15,359.647 139.026,338.749 159.924,511.994 h 127.233 c 26.797,0 42.173,-30.51 26.231,-52.048 z"
     id="path2" /><g
     id="g8">
	<path
   style="fill:#2f91ed"
   d="M 80.699,359.647 6.462,459.946 c -15.941,21.538 -0.566,52.048 26.231,52.048 H 159.926 V 338.749 Z"
   id="path4" />
	<polygon
   style="fill:#2f91ed"
   points="208.303,317.97 208.303,15.68 159.925,15.68 139.027,182.466 159.925,359.647 239.151,359.647 "
   id="polygon6" />
</g><polygon
     style="fill:#63c1ff"
     points="111.548,317.97 80.699,359.647 159.925,359.647 159.925,15.68 111.548,15.68 "
     id="polygon10" /><path
     style="fill:#2f91ed"
     d="m 432.762,99.784 -20.898,192.775 20.898,219.433 c 26.719,0 48.378,-21.659 48.378,-48.378 V 99.784 Z"
     id="path12" /><path
     style="fill:#63c1ff"
     d="m 384.384,99.784 v 363.832 c 0,26.719 21.659,48.378 48.378,48.378 v 0 -412.21 z"
     id="path14" /><g
     id="g40">
	<rect
   x="384.38501"
   y="141.576"
   style="fill:#003da8"
   width="66.133003"
   height="31.348"
   id="rect16" />
	<rect
   x="384.38501"
   y="193.823"
   style="fill:#003da8"
   width="66.133003"
   height="31.348"
   id="rect18" />
	<rect
   x="384.38501"
   y="246.069"
   style="fill:#003da8"
   width="66.133003"
   height="31.348"
   id="rect20" />
	<rect
   x="384.38501"
   y="298.315"
   style="fill:#003da8"
   width="66.133003"
   height="31.348"
   id="rect22" />
	<rect
   x="384.38501"
   y="350.561"
   style="fill:#003da8"
   width="66.133003"
   height="31.348"
   id="rect24" />
	<rect
   x="384.38501"
   y="402.80701"
   style="fill:#003da8"
   width="66.133003"
   height="31.348"
   id="rect26" />
	<rect
   x="111.545"
   y="57.480999"
   style="fill:#003da8"
   width="66.133003"
   height="31.348"
   id="rect28" />
	<rect
   x="111.545"
   y="109.727"
   style="fill:#003da8"
   width="66.133003"
   height="31.348"
   id="rect30" />
	<rect
   x="111.545"
   y="161.97301"
   style="fill:#003da8"
   width="66.133003"
   height="31.348"
   id="rect32" />
	<rect
   x="111.545"
   y="214.21899"
   style="fill:#003da8"
   width="66.133003"
   height="31.348"
   id="rect34" />
	<rect
   x="111.545"
   y="266.465"
   style="fill:#003da8"
   width="66.133003"
   height="31.348"
   id="rect36" />
	<polygon
   style="fill:#003da8"
   points="159.925,0.006 139.027,15.68 159.925,31.354 239.151,31.354 239.151,0.006 "
   id="polygon38" />
</g><rect
     x="80.698997"
     y="0.0060000001"
     style="fill:#2f91ed"
     width="79.225998"
     height="31.348"
     id="rect42" /><polygon
     style="fill:#003da8"
     points="432.774,84.11 411.876,99.785 432.774,115.458 512,115.458 512,84.11 "
     id="polygon44" /><rect
     x="353.54901"
     y="84.106003"
     style="fill:#2f91ed"
     width="79.225998"
     height="31.348"
     id="rect46" /></g>
<g
   id="g48"
   transform="translate(-3.3179577e-4,-0.006)">
</g>
<g
   id="g50"
   transform="translate(-3.3179577e-4,-0.006)">
</g>
<g
   id="g52"
   transform="translate(-3.3179577e-4,-0.006)">
</g>
<g
   id="g54"
   transform="translate(-3.3179577e-4,-0.006)">
</g>
<g
   id="g56"
   transform="translate(-3.3179577e-4,-0.006)">
</g>
<g
   id="g58"
   transform="translate(-3.3179577e-4,-0.006)">
</g>
<g
   id="g60"
   transform="translate(-3.3179577e-4,-0.006)">
</g>
<g
   id="g62"
   transform="translate(-3.3179577e-4,-0.006)">
</g>
<g
   id="g64"
   transform="translate(-3.3179577e-4,-0.006)">
</g>
<g
   id="g66"
   transform="translate(-3.3179577e-4,-0.006)">
</g>
<g
   id="g68"
   transform="translate(-3.3179577e-4,-0.006)">
</g>
<g
   id="g70"
   transform="translate(-3.3179577e-4,-0.006)">
</g>
<g
   id="g72"
   transform="translate(-3.3179577e-4,-0.006)">
</g>
<g
   id="g74"
   transform="translate(-3.3179577e-4,-0.006)">
</g>
<g
   id="g76"
   transform="translate(-3.3179577e-4,-0.006)">
</g>
</svg>
