<?xml version="1.0" encoding="UTF-8" standalone="no"?>
<!-- Generator: Adobe Illustrator 19.0.0, SVG Export Plug-In . SVG Version: 6.00 Build 0)  -->

<svg
   version="1.1"
   id="Layer_1"
   x="0px"
   y="0px"
   viewBox="0 0 96.000001 96.000001"
   xml:space="preserve"
   sodipodi:docname="notes.svg"
   width="1in"
   height="1in"
   inkscape:version="1.3.2 (091e20ef0f, 2023-11-25, custom)"
   xmlns:inkscape="http://www.inkscape.org/namespaces/inkscape"
   xmlns:sodipodi="http://sodipodi.sourceforge.net/DTD/sodipodi-0.dtd"
   xmlns="http://www.w3.org/2000/svg"
   xmlns:svg="http://www.w3.org/2000/svg"><defs
   id="defs41" /><sodipodi:namedview
   id="namedview41"
   pagecolor="#ffffff"
   bordercolor="#000000"
   borderopacity="0.25"
   inkscape:showpageshadow="2"
   inkscape:pageopacity="0.0"
   inkscape:pagecheckerboard="0"
   inkscape:deskcolor="#d1d1d1"
   inkscape:zoom="12.166667"
   inkscape:cx="48.08219"
   inkscape:cy="48.08219"
   inkscape:window-width="2560"
   inkscape:window-height="1406"
   inkscape:window-x="0"
   inkscape:window-y="0"
   inkscape:window-maximized="1"
   inkscape:current-layer="Layer_1"
   inkscape:document-units="in" />






<g
   id="g42"
   transform="matrix(0.1875,0,0,0.1875,9.375e-5,0)"><g
     id="g2">
	<path
   style="fill:#e6e7e8"
   d="M 319.505,512 H 66.898 c -8.193,0 -14.835,-6.642 -14.835,-14.835 V 51.414 c 0,-8.193 6.642,-14.835 14.835,-14.835 h 378.203 c 8.193,0 14.835,6.642 14.835,14.835 V 371.569 C 459.936,449.126 397.062,512 319.505,512 Z"
   id="path1" />
	<path
   style="fill:#a7a9ac;fill-opacity:1"
   d="M 445.341,512 H 66.659 c -8.061,0 -14.596,-6.534 -14.596,-14.596 V 51.175 c 0,-8.061 6.534,-14.596 14.596,-14.596 H 445.34 c 8.061,0 14.596,6.534 14.596,14.596 v 446.23 c 0,8.059 -6.534,14.595 -14.595,14.595 z"
   id="path2" />
</g><g
     id="g10">
	<path
   style="fill:#d1d3d4"
   d="M 145.354,36.579 132.61,70.205 c 0,5.053 4.095,9.147 9.147,9.147 5.052,0 9.147,-4.094 9.147,-9.147 L 163.648,36.58 c 0,-10e-4 -18.294,-10e-4 -18.294,-10e-4 z"
   id="path3" />
	<path
   style="fill:#d1d3d4"
   d="m 191.635,36.579 -12.744,33.625 c 0,5.053 4.095,9.147 9.147,9.147 5.051,0 9.147,-4.094 9.147,-9.147 l 12.744,-33.625 c -0.001,0 -18.294,0 -18.294,0 z"
   id="path4" />
	<path
   style="fill:#d1d3d4"
   d="m 237.916,36.579 -12.744,33.625 c 0,5.053 4.095,9.147 9.147,9.147 5.052,0 9.147,-4.094 9.147,-9.147 L 256.21,36.579 c -10e-4,0 -18.294,0 -18.294,0 z"
   id="path5" />
	<path
   style="fill:#d1d3d4"
   d="M 99.075,36.579 86.331,70.205 c 0,5.053 4.095,9.147 9.147,9.147 5.051,0 9.147,-4.094 9.147,-9.147 L 117.369,36.58 C 117.368,36.579 99.075,36.579 99.075,36.579 Z"
   id="path6" />
	<path
   style="fill:#d1d3d4"
   d="m 423.038,36.579 -12.744,33.625 c 0,5.053 4.095,9.147 9.147,9.147 5.051,0 9.147,-4.094 9.147,-9.147 l 12.744,-33.625 c -10e-4,0 -18.294,0 -18.294,0 z"
   id="path7" />
	<path
   style="fill:#d1d3d4"
   d="m 376.757,36.579 -12.744,33.625 c 0,5.053 4.095,9.147 9.147,9.147 5.051,0 9.147,-4.094 9.147,-9.147 l 12.744,-33.625 c -10e-4,0 -18.294,0 -18.294,0 z"
   id="path8" />
	<path
   style="fill:#d1d3d4"
   d="m 284.197,36.579 -12.744,33.625 c 0,5.053 4.095,9.147 9.147,9.147 5.051,0 9.147,-4.094 9.147,-9.147 l 12.744,-33.625 c -10e-4,0 -18.294,0 -18.294,0 z"
   id="path9" />
	<path
   style="fill:#d1d3d4"
   d="m 330.476,36.579 -12.744,33.625 c 0,5.053 4.095,9.147 9.147,9.147 5.051,0 9.147,-4.094 9.147,-9.147 L 348.77,36.579 c -10e-4,0 -18.294,0 -18.294,0 z"
   id="path10" />
</g><path
     style="fill:#bcbec0"
     d="M 459.936,497.404 V 371.383 L 459.931,372.06 321.444,512 h 123.897 c 8.061,0 14.595,-6.536 14.595,-14.596 z"
     id="path11" /><path
     style="fill:#125670"
     d="m 186.703,473.909 h -86.7 c -2.499,0 -4.525,-2.026 -4.525,-4.525 v -68.196 c 0,-2.499 2.026,-4.526 4.525,-4.526 h 86.7 c 2.499,0 4.525,2.026 4.525,4.526 v 68.196 c 0,2.499 -2.026,4.525 -4.525,4.525 z"
     id="path12" /><path
     style="fill:#d1d3d4"
     d="m 364.971,415.265 c -0.287,0 -0.571,-0.009 -0.857,-0.011 0.007,0.576 0.022,1.151 0.022,1.729 0,38.062 -17.065,72.133 -43.955,94.997 77.189,-0.644 139.582,-63.325 139.749,-140.626 -22.863,26.864 -56.918,43.911 -94.959,43.911 z"
     id="path13" /><g
     id="g21">
	<path
   style="fill:#588eed"
   d="m 95.477,79.351 c -5.051,0 -9.147,-4.094 -9.147,-9.147 V 9.147 C 86.331,4.094 90.426,0 95.477,0 c 5.051,0 9.147,4.094 9.147,9.147 v 61.058 c 0,5.052 -4.095,9.146 -9.147,9.146 z"
   id="path14" />
	<path
   style="fill:#588eed"
   d="m 141.758,79.351 c -5.051,0 -9.147,-4.094 -9.147,-9.147 V 9.147 c 0,-5.053 4.095,-9.147 9.147,-9.147 5.052,0 9.147,4.094 9.147,9.147 v 61.058 c 0,5.052 -4.096,9.146 -9.147,9.146 z"
   id="path15" />
	<path
   style="fill:#588eed"
   d="m 188.039,79.351 c -5.051,0 -9.147,-4.094 -9.147,-9.147 V 9.147 c 0,-5.053 4.095,-9.147 9.147,-9.147 5.052,0 9.147,4.094 9.147,9.147 v 61.058 c -0.001,5.052 -4.096,9.146 -9.147,9.146 z"
   id="path16" />
	<path
   style="fill:#588eed"
   d="m 234.318,79.351 c -5.051,0 -9.147,-4.094 -9.147,-9.147 V 9.147 c 0,-5.053 4.095,-9.147 9.147,-9.147 5.052,0 9.147,4.094 9.147,9.147 v 61.058 c 0,5.052 -4.095,9.146 -9.147,9.146 z"
   id="path17" />
	<path
   style="fill:#588eed"
   d="m 280.599,79.351 c -5.051,0 -9.147,-4.094 -9.147,-9.147 V 9.147 c 0,-5.053 4.095,-9.147 9.147,-9.147 5.051,0 9.147,4.094 9.147,9.147 v 61.058 c 0,5.052 -4.096,9.146 -9.147,9.146 z"
   id="path18" />
	<path
   style="fill:#588eed"
   d="m 326.88,79.351 c -5.051,0 -9.147,-4.094 -9.147,-9.147 V 9.147 c 0,-5.053 4.095,-9.147 9.147,-9.147 5.051,0 9.147,4.094 9.147,9.147 v 61.058 c -10e-4,5.052 -4.096,9.146 -9.147,9.146 z"
   id="path19" />
	<path
   style="fill:#588eed"
   d="m 373.16,79.351 c -5.051,0 -9.147,-4.094 -9.147,-9.147 V 9.147 c 0,-5.053 4.095,-9.147 9.147,-9.147 5.051,0 9.147,4.094 9.147,9.147 v 61.058 c 0,5.052 -4.095,9.146 -9.147,9.146 z"
   id="path20" />
	<path
   style="fill:#588eed"
   d="m 419.44,79.351 c -5.051,0 -9.147,-4.094 -9.147,-9.147 V 9.147 c 0,-5.053 4.095,-9.147 9.147,-9.147 5.051,0 9.147,4.094 9.147,9.147 v 61.058 c -10e-4,5.052 -4.096,9.146 -9.147,9.146 z"
   id="path21" />
</g><g
     id="g26">
	<path
   style="fill:#125670"
   d="M 419.44,172.689 H 95.477 c -5.051,0 -9.147,-4.094 -9.147,-9.147 0,-5.053 4.095,-9.147 9.147,-9.147 H 419.44 c 5.051,0 9.147,4.094 9.147,9.147 -10e-4,5.053 -4.096,9.147 -9.147,9.147 z"
   id="path22" />
	<path
   style="fill:#125670"
   d="M 419.44,214.276 H 95.477 c -5.051,0 -9.147,-4.094 -9.147,-9.147 0,-5.053 4.095,-9.147 9.147,-9.147 H 419.44 c 5.051,0 9.147,4.094 9.147,9.147 -10e-4,5.053 -4.096,9.147 -9.147,9.147 z"
   id="path23" />
	<path
   style="fill:#125670"
   d="M 419.44,255.863 H 95.477 c -5.051,0 -9.147,-4.094 -9.147,-9.147 0,-5.053 4.095,-9.147 9.147,-9.147 H 419.44 c 5.051,0 9.147,4.094 9.147,9.147 -10e-4,5.053 -4.096,9.147 -9.147,9.147 z"
   id="path24" />
	<path
   style="fill:#125670"
   d="M 419.44,297.449 H 95.477 c -5.051,0 -9.147,-4.094 -9.147,-9.147 0,-5.053 4.095,-9.147 9.147,-9.147 H 419.44 c 5.051,0 9.147,4.094 9.147,9.147 -10e-4,5.053 -4.096,9.147 -9.147,9.147 z"
   id="path25" />
	<path
   style="fill:#125670"
   d="M 419.44,339.036 H 95.477 c -5.051,0 -9.147,-4.094 -9.147,-9.147 0,-5.053 4.095,-9.147 9.147,-9.147 H 419.44 c 5.051,0 9.147,4.094 9.147,9.147 -10e-4,5.053 -4.096,9.147 -9.147,9.147 z"
   id="path26" />
</g></g>
<g
   id="g27"
   transform="translate(-52.063)">
</g>
<g
   id="g28"
   transform="translate(-52.063)">
</g>
<g
   id="g29"
   transform="translate(-52.063)">
</g>
<g
   id="g30"
   transform="translate(-52.063)">
</g>
<g
   id="g31"
   transform="translate(-52.063)">
</g>
<g
   id="g32"
   transform="translate(-52.063)">
</g>
<g
   id="g33"
   transform="translate(-52.063)">
</g>
<g
   id="g34"
   transform="translate(-52.063)">
</g>
<g
   id="g35"
   transform="translate(-52.063)">
</g>
<g
   id="g36"
   transform="translate(-52.063)">
</g>
<g
   id="g37"
   transform="translate(-52.063)">
</g>
<g
   id="g38"
   transform="translate(-52.063)">
</g>
<g
   id="g39"
   transform="translate(-52.063)">
</g>
<g
   id="g40"
   transform="translate(-52.063)">
</g>
<g
   id="g41"
   transform="translate(-52.063)">
</g>
</svg>
