<?xml version="1.0" encoding="UTF-8" standalone="no"?>
<svg
   xmlns:dc="http://purl.org/dc/elements/1.1/"
   xmlns:cc="http://creativecommons.org/ns#"
   xmlns:rdf="http://www.w3.org/1999/02/22-rdf-syntax-ns#"
   xmlns:svg="http://www.w3.org/2000/svg"
   xmlns="http://www.w3.org/2000/svg"
   xmlns:xlink="http://www.w3.org/1999/xlink"
   xmlns:sodipodi="http://sodipodi.sourceforge.net/DTD/sodipodi-0.dtd"
   xmlns:inkscape="http://www.inkscape.org/namespaces/inkscape"
   version="1.1"
   id="Layer_1"
   x="0px"
   y="0px"
   viewBox="0 0 512 512"
   style="enable-background:new 0 0 512 512;"
   xml:space="preserve"
   sodipodi:docname="principleScroll.svg"
   inkscape:version="1.0.1 (3bc2e813f5, 2020-09-07)"><metadata
   id="metadata43"><rdf:RDF><cc:Work
       rdf:about=""><dc:format>image/svg+xml</dc:format><dc:type
         rdf:resource="http://purl.org/dc/dcmitype/StillImage" /></cc:Work></rdf:RDF></metadata><defs
   id="defs41" /><sodipodi:namedview
   pagecolor="#ffffff"
   bordercolor="#666666"
   borderopacity="1"
   objecttolerance="10"
   gridtolerance="10"
   guidetolerance="10"
   inkscape:pageopacity="0"
   inkscape:pageshadow="2"
   inkscape:window-width="2496"
   inkscape:window-height="1399"
   id="namedview39"
   showgrid="false"
   inkscape:object-paths="true"
   inkscape:snap-intersection-paths="true"
   inkscape:zoom="1.3964844"
   inkscape:cx="256"
   inkscape:cy="256"
   inkscape:window-x="64"
   inkscape:window-y="0"
   inkscape:window-maximized="1"
   inkscape:current-layer="Layer_1" />
<path
   style="fill:#CCAC68;"
   d="M140.874,375.715H89.04c-36.573,0-66.221,29.647-66.221,66.221l0,0  c0,36.573,29.647,66.221,66.221,66.221h177.671v-97.646L140.874,375.715z"
   id="path2" />
<path
   style="fill:#E6C275;"
   d="M360.768,136.285L150.707,3.843H84.011l0,0c-63.144,0-103.656,67.127-74.229,122.995l143.846,273.09  h-0.023c26.39,48.886-9.012,108.229-64.566,108.229h349.485c55.555,0,90.956-59.342,64.566-108.229L360.768,136.285z"
   id="path4" />
<path
   style="fill:#FFD782;"
   d="M84.011,3.843c36.573,0,66.221,29.649,66.221,66.221l0,0c0,36.573-29.649,66.221-66.221,66.221  h276.757c36.573,0,66.221-29.649,66.221-66.221l0,0c0-36.573-29.649-66.221-66.221-66.221C360.768,3.843,84.011,3.843,84.011,3.843z  "
   id="path6" />
<g
   id="g8">
</g>
<g
   id="g10">
</g>
<g
   id="g12">
</g>
<g
   id="g14">
</g>
<g
   id="g16">
</g>
<g
   id="g18">
</g>
<g
   id="g20">
</g>
<g
   id="g22">
</g>
<g
   id="g24">
</g>
<g
   id="g26">
</g>
<g
   id="g28">
</g>
<g
   id="g30">
</g>
<g
   id="g32">
</g>
<g
   id="g34">
</g>
<g
   id="g36">
</g>
<path
   style="color:#000000;font-style:normal;font-variant:normal;font-weight:normal;font-stretch:normal;font-size:medium;line-height:normal;font-family:sans-serif;font-variant-ligatures:normal;font-variant-position:normal;font-variant-caps:normal;font-variant-numeric:normal;font-variant-alternates:normal;font-variant-east-asian:normal;font-feature-settings:normal;font-variation-settings:normal;text-indent:0;text-align:start;text-decoration:none;text-decoration-line:none;text-decoration-style:solid;text-decoration-color:#000000;letter-spacing:normal;word-spacing:normal;text-transform:none;writing-mode:lr-tb;direction:ltr;text-orientation:mixed;dominant-baseline:auto;baseline-shift:baseline;text-anchor:start;white-space:normal;shape-padding:0;shape-margin:0;inline-size:0;clip-rule:nonzero;display:inline;overflow:visible;visibility:visible;opacity:1;isolation:auto;mix-blend-mode:normal;color-interpolation:sRGB;color-interpolation-filters:linearRGB;solid-color:#000000;solid-opacity:1;vector-effect:none;fill:#800000;fill-opacity:1;fill-rule:nonzero;stroke:none;stroke-width:24;stroke-linecap:round;stroke-linejoin:miter;stroke-miterlimit:4;stroke-dasharray:none;stroke-dashoffset:0;stroke-opacity:1;color-rendering:auto;image-rendering:auto;shape-rendering:auto;text-rendering:auto;enable-background:accumulate;stop-color:#000000;stop-opacity:1"
   d="m 96.72968,186.78711 a 14.943638,9.6362078 38.765068 0 0 -6.692571,12 14.943638,9.6362078 38.765068 0 0 17.307431,12 h 259.17773 a 14.943638,9.6362078 38.765068 0 0 6.69257,-12 14.943638,9.6362078 38.765068 0 0 -17.30743,-12 z"
   id="path872" /><use
   x="0"
   y="0"
   xlink:href="#path872"
   id="use874"
   transform="translate(20.935227,42.826766)"
   width="100%"
   height="100%" /><use
   x="0"
   y="0"
   xlink:href="#use874"
   id="use876"
   transform="translate(24.525787,42.82677)"
   width="100%"
   height="100%" /><use
   x="0"
   y="0"
   xlink:href="#use876"
   id="use878"
   transform="translate(24.831206,42.826745)"
   width="100%"
   height="100%" /><use
   x="0"
   y="0"
   xlink:href="#use878"
   id="use880"
   transform="translate(23.170542,42.8268)"
   width="100%"
   height="100%" /></svg>
