<?xml version="1.0" encoding="UTF-8" standalone="no"?>
<!-- Uploaded to: SVG Repo, www.svgrepo.com, Generator: SVG Repo Mixer Tools -->

<svg
   width="1in"
   height="1in"
   viewBox="0 0 4.32 4.32"
   aria-hidden="true"
   role="img"
   class="iconify iconify--twemoji"
   preserveAspectRatio="xMidYMid"
   version="1.1"
   id="svg5"
   sodipodi:docname="light-bulb.svg"
   inkscape:version="1.3.2 (091e20ef0f, 2023-11-25, custom)"
   xmlns:inkscape="http://www.inkscape.org/namespaces/inkscape"
   xmlns:sodipodi="http://sodipodi.sourceforge.net/DTD/sodipodi-0.dtd"
   xmlns="http://www.w3.org/2000/svg"
   xmlns:svg="http://www.w3.org/2000/svg">
  <defs
     id="defs5" />
  <sodipodi:namedview
     id="namedview5"
     pagecolor="#ffffff"
     bordercolor="#000000"
     borderopacity="0.25"
     inkscape:showpageshadow="2"
     inkscape:pageopacity="0.0"
     inkscape:pagecheckerboard="0"
     inkscape:deskcolor="#d1d1d1"
     inkscape:zoom="2.92"
     inkscape:cx="48.287671"
     inkscape:cy="70.205479"
     inkscape:window-width="2560"
     inkscape:window-height="1406"
     inkscape:window-x="0"
     inkscape:window-y="0"
     inkscape:window-maximized="1"
     inkscape:current-layer="svg5"
     inkscape:document-units="in" />
  <g
     id="g5"
     transform="matrix(0.12392427,0,0,0.12392427,-0.07063686,-0.01734942)">
    <path
       fill="#FFD983"
       d="m 29,11.06 c 0,6.439 -5,7.439 -5,13.44 0,3.098 -3.123,3.359 -5.5,3.359 -2.053,0 -6.586,-0.779 -6.586,-3.361 C 11.914,18.5 7,17.5 7,11.06 7,5.029 12.285,0.14 18.083,0.14 23.883,0.14 29,5.029 29,11.06 Z"
       id="path1"
       style="fill:#fadc8e;fill-opacity:1" />
    <path
       fill="#ccd6dd"
       d="m 22.167,32.5 c 0,0.828 -2.234,2.5 -4.167,2.5 -1.933,0 -4.167,-1.672 -4.167,-2.5 0,-0.828 2.233,-0.5 4.167,-0.5 1.933,0 4.167,-0.328 4.167,0.5 z"
       id="path2" />
    <path
       fill="#FFCC4D"
       d="m 22.707,10.293 a 0.999,0.999 0 0 0 -1.414,0 L 18,13.586 14.707,10.293 a 0.99984899,0.99984899 0 1 0 -1.414,1.414 L 17,15.414 V 26 a 1,1 0 1 0 2,0 V 15.414 l 3.707,-3.707 a 0.999,0.999 0 0 0 0,-1.414 z"
       id="path3"
       style="fill:#000000" />
    <path
       fill="#99aab5"
       d="m 24,31 a 2,2 0 0 1 -2,2 h -8 a 2,2 0 0 1 -2,-2 v -6 h 12 z"
       id="path4" />
    <path
       fill="#ccd6dd"
       d="m 11.999,32 a 1,1 0 0 1 -0.163,-1.986 l 12,-2 a 0.994,0.994 0 0 1 1.15,0.822 0.999,0.999 0 0 1 -0.822,1.15 l -12,2 A 0.927,0.927 0 0 1 11.999,32 Z m 0,-4 a 1,1 0 0 1 -0.163,-1.986 l 12,-2 a 0.995,0.995 0 0 1 1.15,0.822 0.999,0.999 0 0 1 -0.822,1.15 l -12,2 A 0.927,0.927 0 0 1 11.999,28 Z"
       id="path5" />
  </g>
</svg>
