<?xml version="1.0" encoding="iso-8859-1"?>
<!-- Uploaded to: SVG Repo, www.svgrepo.com, Generator: SVG Repo Mixer Tools -->
<svg height="800px" width="800px" version="1.1" id="Layer_1" xmlns="http://www.w3.org/2000/svg" xmlns:xlink="http://www.w3.org/1999/xlink" 
	 viewBox="0 0 512 512" xml:space="preserve">
<circle style="fill:#FFDC64;" cx="256" cy="256" r="256"/>
<path style="fill:#FFC850;" d="M302.617,465.383c-141.384,0-256-114.616-256-256c0-58.808,19.878-112.945,53.215-156.168
	C39.138,100.026,0,173.423,0,256c0,141.384,114.616,256,256,256c82.577,0,155.974-39.138,202.785-99.832
	C415.561,445.505,361.426,465.383,302.617,465.383z"/>
<g>
	<path style="fill:#464655;" d="M218.304,190.24l-60.67-106.127c-2.861-5.005-9.368-6.789-14.217-3.672
		c-55.183,35.454-92.589,96.168-95.787,165.841c-0.244,5.326,4.162,9.742,9.496,9.751c26.075,0.039,97.35,0.052,123.081,0.001
		c5.111-0.011,9.332-3.806,10.009-8.872c2.375-17.798,11.823-33.344,25.412-43.774C219.684,200.273,220.844,194.681,218.304,190.24z
		"/>
	<path style="fill:#464655;" d="M293.728,321.784c-2.568-4.478-8.025-6.254-12.804-4.303c-7.693,3.142-16.1,4.89-24.924,4.89
		c-8.844,0-17.267-1.756-24.973-4.91c-4.781-1.957-10.208-0.241-12.776,4.241c-18.35,32.009-39.726,69.352-60.789,106.142
		c-2.857,4.991-1.109,11.476,4.014,14.088c28.378,14.468,60.486,22.662,94.524,22.662c34.043,0,66.156-8.197,94.537-22.669
		c5.126-2.613,6.867-9.111,4.005-14.101L293.728,321.784z"/>
	<path style="fill:#464655;" d="M293.696,190.24l60.67-106.127c2.861-5.005,9.368-6.789,14.217-3.672
		c55.183,35.455,92.589,96.169,95.788,165.841c0.244,5.326-4.162,9.742-9.496,9.751c-26.075,0.039-97.35,0.052-123.081,0.001
		c-5.111-0.011-9.332-3.806-10.009-8.872c-2.375-17.798-11.823-33.344-25.412-43.774
		C292.316,200.273,291.156,194.681,293.696,190.24z"/>
	<circle style="fill:#464655;" cx="256" cy="256" r="28.444"/>
</g>
</svg>