<?xml version="1.0" encoding="UTF-8" standalone="no"?>
<!-- Generator: Adobe Illustrator 19.0.0, SVG Export Plug-In . SVG Version: 6.00 Build 0)  -->

<svg
   version="1.1"
   id="Capa_1"
   x="0px"
   y="0px"
   viewBox="0 0 86.25 86.25"
   xml:space="preserve"
   width="1in"
   height="1in"
   sodipodi:docname="AncientSpellbook.svg"
   inkscape:version="1.2.1 (9c6d41e410, 2022-07-14)"
   xmlns:inkscape="http://www.inkscape.org/namespaces/inkscape"
   xmlns:sodipodi="http://sodipodi.sourceforge.net/DTD/sodipodi-0.dtd"
   xmlns="http://www.w3.org/2000/svg"
   xmlns:svg="http://www.w3.org/2000/svg"><defs
   id="defs16" /><sodipodi:namedview
   id="namedview14"
   pagecolor="#ffffff"
   bordercolor="#000000"
   borderopacity="0.25"
   inkscape:showpageshadow="2"
   inkscape:pageopacity="0.0"
   inkscape:pagecheckerboard="0"
   inkscape:deskcolor="#d1d1d1"
   showgrid="false"
   inkscape:zoom="10.310482"
   inkscape:cx="56.059455"
   inkscape:cy="46.651553"
   inkscape:window-width="2502"
   inkscape:window-height="1406"
   inkscape:window-x="58"
   inkscape:window-y="0"
   inkscape:window-maximized="1"
   inkscape:current-layer="Capa_1"
   inkscape:document-units="in" />
<g
   id="XMLID_1618_"
   transform="matrix(0.1875,0,0,0.1875,0,1.09375)">
	<path
   id="XMLID_482_"
   style="fill:#8c564b"
   d="M 450,382.5 H 10 c -5.523,0 -10,-4.477 -10,-10 v -300 c 0,-5.523 4.477,-10 10,-10 h 440 c 5.523,0 10,4.477 10,10 v 300 c 0,5.523 -4.477,10 -10,10 z" />
	<path
   id="XMLID_481_"
   style="fill:#283215"
   d="m 250,382.5 h -40 v -320 h 40 z" />
	<path
   id="XMLID_479_"
   style="fill:#aca082"
   d="m 440,302.5 v 50 c 0,5.523 -4.477,10 -10,10 H 260 c -16.569,0 -30,-13.431 -30,-30 0,16.569 -13.431,30 -30,30 H 30 c -5.523,0 -10,-4.477 -10,-10 v -50 h 180 c 16.569,0 30,13.431 30,30 0,-16.568 13.431,-30 30,-30 z" />
	<path
   id="XMLID_449_"
   style="fill:#d5c9ab"
   d="m 440,42.5 v 290 H 230 20 v -290 c 0,-5.523 4.477,-10 10,-10 h 170 c 16.569,0 30,13.431 30,30 0,-16.569 13.431,-30 30,-30 h 170 c 5.523,0 10,4.477 10,10 z" />
	<path
   id="XMLID_2813_"
   style="fill:#b2aa92"
   d="M 415,72.5 H 295 c -2.761,0 -5,-2.239 -5,-5 v 0 c 0,-2.761 2.239,-5 5,-5 h 120 c 2.761,0 5,2.239 5,5 v 0 c 0,2.761 -2.239,5 -5,5 z m 5,15 v 0 c 0,-2.761 -2.239,-5 -5,-5 H 295 c -2.761,0 -5,2.239 -5,5 v 0 c 0,2.761 2.239,5 5,5 h 120 c 2.761,0 5,-2.239 5,-5 z m 0,20 v 0 c 0,-2.761 -2.239,-5 -5,-5 H 255 c -2.761,0 -5,2.239 -5,5 v 0 c 0,2.761 2.239,5 5,5 h 160 c 2.761,0 5,-2.239 5,-5 z m -20,40 v 0 c 0,-2.761 -2.239,-5 -5,-5 H 255 c -2.761,0 -5,2.239 -5,5 v 0 c 0,2.761 2.239,5 5,5 h 140 c 2.761,0 5,-2.239 5,-5 z m 20,20 v 0 c 0,-2.761 -2.239,-5 -5,-5 H 255 c -2.761,0 -5,2.239 -5,5 v 0 c 0,2.761 2.239,5 5,5 h 160 c 2.761,0 5,-2.239 5,-5 z m -10,20 v 0 c 0,-2.761 -2.239,-5 -5,-5 H 255 c -2.761,0 -5,2.239 -5,5 v 0 c 0,2.761 2.239,5 5,5 h 150 c 2.761,0 5,-2.239 5,-5 z m 10,20 v 0 c 0,-2.761 -2.239,-5 -5,-5 H 255 c -2.761,0 -5,2.239 -5,5 v 0 c 0,2.761 2.239,5 5,5 h 160 c 2.761,0 5,-2.239 5,-5 z m -20,20 v 0 c 0,-2.761 -2.239,-5 -5,-5 H 255 c -2.761,0 -5,2.239 -5,5 v 0 c 0,2.761 2.239,5 5,5 h 140 c 2.761,0 5,-2.239 5,-5 z m 20,20 v 0 c 0,-2.761 -2.239,-5 -5,-5 H 255 c -2.761,0 -5,2.239 -5,5 v 0 c 0,2.761 2.239,5 5,5 h 160 c 2.761,0 5,-2.239 5,-5 z m -10,20 v 0 c 0,-2.761 -2.239,-5 -5,-5 H 255 c -2.761,0 -5,2.239 -5,5 v 0 c 0,2.761 2.239,5 5,5 h 150 c 2.761,0 5,-2.239 5,-5 z M 280,87.5 v -20 c 0,-2.761 -2.239,-5 -5,-5 h -20 c -2.761,0 -5,2.239 -5,5 v 20 c 0,2.761 2.239,5 5,5 h 20 c 2.761,0 5,-2.239 5,-5 z m 135,215 h -10 c -2.761,0 -5,2.239 -5,5 v 0 c 0,2.761 2.239,5 5,5 h 10 c 2.761,0 5,-2.239 5,-5 v 0 c 0,-2.761 -2.239,-5 -5,-5 z" />
	<path
   id="XMLID_478_"
   style="fill:#958b71"
   d="m 310,352.5 c -33.137,0 -60,-2.239 -60,-5 0,-2.761 26.863,-5 60,-5 33.137,0 60,2.239 60,5 0,2.761 -26.863,5 -60,5 z" />
	<path
   id="XMLID_453_"
   style="fill:#b04230"
   d="m 340,427.5 -30,-10 -30,10 v -76 c 0,-2.209 1.791,-4 4,-4 h 52 c 2.209,0 4,1.791 4,4 z" />
	<path
   id="XMLID_464_"
   style="fill:#d8c8a7"
   d="m 230,332.5 v 0 c 0,16.569 -13.431,30 -30,30 H 30 c -5.523,0 -10,-4.477 -10,-10 v -50 h 180 c 16.569,0 30,13.431 30,30 z" />
	<path
   id="XMLID_341_"
   style="fill:#f2e3c0"
   d="m 230,62.5 v 270 H 20 v -290 c 0,-5.523 4.477,-10 10,-10 h 170 c 16.569,0 30,13.431 30,30 z" />
	<path
   id="XMLID_340_"
   style="fill:#cfc4a6"
   d="M 205,72.5 H 85 c -2.761,0 -5,-2.239 -5,-5 v 0 c 0,-2.761 2.239,-5 5,-5 h 120 c 2.761,0 5,2.239 5,5 v 0 c 0,2.761 -2.239,5 -5,5 z m 5,15 v 0 c 0,-2.761 -2.239,-5 -5,-5 H 85 c -2.761,0 -5,2.239 -5,5 v 0 c 0,2.761 2.239,5 5,5 h 120 c 2.761,0 5,-2.239 5,-5 z m 0,20 v 0 c 0,-2.761 -2.239,-5 -5,-5 H 45 c -2.761,0 -5,2.239 -5,5 v 0 c 0,2.761 2.239,5 5,5 h 160 c 2.761,0 5,-2.239 5,-5 z m -20,20 v 0 c 0,-2.761 -2.239,-5 -5,-5 H 45 c -2.761,0 -5,2.239 -5,5 v 0 c 0,2.761 2.239,5 5,5 h 140 c 2.761,0 5,-2.239 5,-5 z m 20,20 v 0 c 0,-2.761 -2.239,-5 -5,-5 H 45 c -2.761,0 -5,2.239 -5,5 v 0 c 0,2.761 2.239,5 5,5 h 160 c 2.761,0 5,-2.239 5,-5 z m -10,20 v 0 c 0,-2.761 -2.239,-5 -5,-5 H 45 c -2.761,0 -5,2.239 -5,5 v 0 c 0,2.761 2.239,5 5,5 h 150 c 2.761,0 5,-2.239 5,-5 z m 10,40 v 0 c 0,-2.761 -2.239,-5 -5,-5 H 45 c -2.761,0 -5,2.239 -5,5 v 0 c 0,2.761 2.239,5 5,5 h 160 c 2.761,0 5,-2.239 5,-5 z m -20,20 v 0 c 0,-2.761 -2.239,-5 -5,-5 H 45 c -2.761,0 -5,2.239 -5,5 v 0 c 0,2.761 2.239,5 5,5 h 140 c 2.761,0 5,-2.239 5,-5 z m 20,20 v 0 c 0,-2.761 -2.239,-5 -5,-5 H 45 c -2.761,0 -5,2.239 -5,5 v 0 c 0,2.761 2.239,5 5,5 h 160 c 2.761,0 5,-2.239 5,-5 z m -10,20 v 0 c 0,-2.761 -2.239,-5 -5,-5 H 45 c -2.761,0 -5,2.239 -5,5 v 0 c 0,2.761 2.239,5 5,5 h 150 c 2.761,0 5,-2.239 5,-5 z M 70,87.5 v -20 c 0,-2.761 -2.239,-5 -5,-5 H 45 c -2.761,0 -5,2.239 -5,5 v 20 c 0,2.761 2.239,5 5,5 h 20 c 2.761,0 5,-2.239 5,-5 z m -15,215 H 45 c -2.761,0 -5,2.239 -5,5 v 0 c 0,2.761 2.239,5 5,5 h 10 c 2.761,0 5,-2.239 5,-5 v 0 c 0,-2.761 -2.239,-5 -5,-5 z" />
</g>















</svg>
