<?xml version="1.0" encoding="UTF-8" standalone="no"?>
<!-- Created with Inkscape (http://www.inkscape.org/) -->

<svg
   width="73.183853mm"
   height="73.818901mm"
   viewBox="0 0 73.183852 73.818902"
   version="1.1"
   id="svg5"
   inkscape:version="1.3.2 (091e20ef0f, 2023-11-25, custom)"
   sodipodi:docname="tools.svg"
   xmlns:inkscape="http://www.inkscape.org/namespaces/inkscape"
   xmlns:sodipodi="http://sodipodi.sourceforge.net/DTD/sodipodi-0.dtd"
   xmlns="http://www.w3.org/2000/svg"
   xmlns:svg="http://www.w3.org/2000/svg">
  <sodipodi:namedview
     id="namedview7"
     pagecolor="#ffffff"
     bordercolor="#666666"
     borderopacity="1.0"
     inkscape:pageshadow="2"
     inkscape:pageopacity="0.0"
     inkscape:pagecheckerboard="0"
     inkscape:document-units="mm"
     showgrid="false"
     inkscape:zoom="0.76164918"
     inkscape:cx="158.86579"
     inkscape:cy="29.54116"
     inkscape:window-width="1366"
     inkscape:window-height="734"
     inkscape:window-x="0"
     inkscape:window-y="0"
     inkscape:window-maximized="1"
     inkscape:current-layer="layer1"
     inkscape:showpageshadow="2"
     inkscape:deskcolor="#d1d1d1" />
  <defs
     id="defs2" />
  <g
     inkscape:label="Layer 1"
     inkscape:groupmode="layer"
     id="layer1"
     transform="translate(164.68894,60.042919)">
    <g
       id="g101"
       transform="matrix(0.14882783,0,0,0.14882783,-335.3436,86.733611)">
      <g
         id="g15">
        <rect
           x="85.681999"
           y="298.53799"
           style="fill:#3b67aa"
           width="340.63699"
           height="31.347"
           id="rect9" />
        <polygon
           style="fill:#3b67aa"
           points="91.36,499.992 128.508,410.542 157.464,422.55 120.316,512 "
           id="polygon11" />
        <polygon
           style="fill:#3b67aa"
           points="420.592,499.992 383.444,410.542 354.488,422.55 391.637,512 "
           id="polygon13" />
      </g>
      <polygon
         style="fill:#0094e2"
         points="105.837,444.508 149.413,462.581 255.999,205.548 212.443,187.424 "
         id="polygon17" />
      <polygon
         style="fill:#3ebbfb"
         points="212.443,187.424 105.837,444.508 127.676,453.565 234.171,196.465 "
         id="polygon19" />
      <polygon
         style="fill:#0094e2"
         points="256,205.497 299.576,187.424 406.162,444.457 362.607,462.581 "
         id="polygon21" />
      <polygon
         style="fill:#3ebbfb"
         points="362.607,462.581 256,205.497 277.839,196.44 384.333,453.54 "
         id="polygon23" />
      <rect
         x="232.41701"
         style="fill:#0094e2"
         width="47.176998"
         height="144.20599"
         id="rect25"
         y="0" />
      <rect
         x="232.41701"
         style="fill:#3ebbfb"
         width="23.587999"
         height="144.20599"
         id="rect27"
         y="0" />
      <circle
         style="fill:#e0e0e0"
         cx="256"
         cy="144.20599"
         r="72.788002"
         id="circle29" />
      <path
         style="fill:#f1f1f1"
         d="m 256,71.421 c -40.199,0 -72.788,32.588 -72.788,72.788 0,40.2 32.588,72.788 72.788,72.788 z"
         id="path31" />
      <circle
         style="fill:#3b67aa"
         cx="256"
         cy="144.20599"
         r="25.761999"
         id="circle33" />
      <path
         style="fill:#0094e2"
         d="m 256,118.445 c -14.228,0 -25.762,11.535 -25.762,25.762 0,14.228 11.535,25.762 25.762,25.762 z"
         id="path35" />
      <g
         id="g37" />
      <g
         id="g39" />
      <g
         id="g41" />
      <g
         id="g43" />
      <g
         id="g45" />
      <g
         id="g47" />
      <g
         id="g49" />
      <g
         id="g51" />
      <g
         id="g53" />
      <g
         id="g55" />
      <g
         id="g57" />
      <g
         id="g59" />
      <g
         id="g61" />
      <g
         id="g63" />
      <g
         id="g65" />
    </g>
    <g
       id="g231"
       transform="matrix(-0.14882783,0,0,-0.14882783,-256.72421,65.396478)">
      <path
         style="fill:#2d64bc"
         d="m 401.874,511.994 c 17.334,-0.131 31.347,-14.218 31.347,-31.583 V 204.618 l -41.796,-10.449 z"
         id="path103" />
      <polygon
         style="fill:#e04c00"
         points="231.829,512 200.482,256 231.829,0 301.411,0 301.411,512 "
         id="polygon105" />
      <path
         style="fill:#ff8e00"
         d="M 62.027,6.468 41.129,263.314 62.027,512 v 0 c 17.446,0 31.588,-14.143 31.588,-31.589 V 38.603 Z"
         id="path107" />
      <g
         id="g113">
        <polygon
           style="fill:#ffba00"
           points="93.615,75.264 93.615,38.603 62.027,6.468 51.578,75.264 "
           id="polygon109" />
        <path
           style="fill:#ffba00"
           d="m 62.027,6.468 -31.59,32.135 v 441.809 c 0,17.446 14.143,31.589 31.589,31.589 V 6.468 Z"
           id="path111" />
      </g>
      <polygon
         style="fill:#2d64bc"
         points="481.564,242.705 481.564,31.588 450.217,31.588 450.217,59.034 401.874,59.034 401.874,90.381 450.217,90.381 450.217,242.705 "
         id="polygon115" />
      <rect
         x="162.252"
         style="fill:#ff7d3c"
         width="69.580002"
         height="512"
         id="rect117"
         y="0" />
      <g
         id="g137">
        <rect
           x="218.907"
           y="445.12701"
           style="fill:#ffb995"
           width="82.503998"
           height="31.347"
           id="rect119" />
        <rect
           x="202.742"
           y="393.927"
           style="fill:#ffb995"
           width="98.669998"
           height="31.347"
           id="rect121" />
        <rect
           x="218.907"
           y="342.72699"
           style="fill:#ffb995"
           width="82.503998"
           height="31.347"
           id="rect123" />
        <rect
           x="202.742"
           y="291.52701"
           style="fill:#ffb995"
           width="98.669998"
           height="31.347"
           id="rect125" />
        <rect
           x="218.907"
           y="240.327"
           style="fill:#ffb995"
           width="82.503998"
           height="31.347"
           id="rect127" />
        <rect
           x="202.742"
           y="189.127"
           style="fill:#ffb995"
           width="98.669998"
           height="31.347"
           id="rect129" />
        <rect
           x="218.907"
           y="137.927"
           style="fill:#ffb995"
           width="82.503998"
           height="31.347"
           id="rect131" />
        <rect
           x="202.742"
           y="86.726997"
           style="fill:#ffb995"
           width="98.669998"
           height="31.347"
           id="rect133" />
        <rect
           x="218.907"
           y="35.527"
           style="fill:#ffb995"
           width="82.503998"
           height="31.347"
           id="rect135" />
      </g>
      <polygon
         style="fill:#fde09c"
         points="30.437,75.264 62.027,75.264 62.027,6.468 30.437,38.603 "
         id="polygon139" />
      <path
         style="fill:#e04c00"
         d="M 51.578,423.412 62.027,512 v 0 c 17.446,0 31.588,-14.143 31.588,-31.589 v -46.55 z"
         id="path141" />
      <path
         style="fill:#ff7d3c"
         d="m 62.027,423.412 -31.589,10.449 v 46.55 c 0,17.446 14.143,31.589 31.589,31.589 z"
         id="path143" />
      <polygon
         style="fill:#9bd6ff"
         points="51.578,412.302 62.027,433.861 93.615,433.861 93.615,390.743 62.027,390.743 "
         id="polygon145" />
      <rect
         x="30.438"
         y="390.73999"
         style="fill:#c4eaff"
         width="31.587"
         height="43.123001"
         id="rect147" />
      <path
         style="fill:#6499f3"
         d="m 370.043,204.8 v 275.612 c 0,17.446 14.143,31.588 31.589,31.588 V 194.351 Z"
         id="path149" />
      <path
         style="fill:#9bd6ff"
         d="m 401.874,0.006 -10.449,204.612 h 41.796 V 31.588 C 433.22,14.224 419.207,0.137 401.874,0.006 Z"
         id="path151" />
      <path
         style="fill:#c4eaff"
         d="m 401.632,0 c -17.446,0 -31.589,14.143 -31.589,31.588 v 173.029 h 31.589 z"
         id="path153" />
      <g
         id="g155" />
      <g
         id="g157" />
      <g
         id="g159" />
      <g
         id="g161" />
      <g
         id="g163" />
      <g
         id="g165" />
      <g
         id="g167" />
      <g
         id="g169" />
      <g
         id="g171" />
      <g
         id="g173" />
      <g
         id="g175" />
      <g
         id="g177" />
      <g
         id="g179" />
      <g
         id="g181" />
      <g
         id="g183" />
    </g>
    <g
       id="g1069"
       transform="rotate(-90,-72.094825,121.76865)">
      <polygon
         style="fill:#cdd4d5"
         points="457.5,51.563 427.332,117.931 376.047,169.216 315.712,108.881 366.997,57.596 433.366,27.428 "
         id="polygon233"
         transform="matrix(0.14882783,0,0,0.14882783,34.70722,27.666458)" />
      <g
         id="g239"
         transform="matrix(0.14882783,0,0,0.14882783,34.70722,27.666458)">
        <rect
           x="248.868"
           y="105.928"
           transform="matrix(-0.7071,-0.7071,0.7071,-0.7071,299.1308,561.8752)"
           style="fill:#9baaab"
           width="34.131001"
           height="226.11501"
           id="rect235" />
        <polygon
           style="fill:#9baaab"
           points="427.332,117.931 457.5,51.563 445.104,39.166 345.55,138.72 376.047,169.216 "
           id="polygon237" />
      </g>
      <rect
         x="95.066856"
         y="-26.743887"
         transform="rotate(45)"
         style="fill:#687f82;stroke-width:0.148826"
         width="2.608927"
         height="33.651882"
         id="rect241" />
      <rect
         x="-103.39087"
         y="-32.941154"
         transform="rotate(-135)"
         style="fill:#ff8c29;stroke-width:0.148826"
         width="16.508421"
         height="19.683184"
         id="rect243" />
      <g
         id="g249"
         transform="matrix(0.14882783,0,0,0.14882783,34.70722,27.666458)">
        <polygon
           style="fill:#ffd1a9"
           points="74.37,476.928 8,410.559 23.084,383.408 101.52,461.844 "
           id="polygon245" />
        <polygon
           style="fill:#ffd1a9"
           points="158.84,271.787 213.141,326.089 195.041,368.324 116.605,289.888 "
           id="polygon247" />
      </g>
      <g
         id="g257"
         transform="matrix(0.14882783,0,0,0.14882783,34.70722,27.666458)">
        <path
           style="fill:#f0353d"
           d="m 62.303,430.625 c -2.047,0 -4.095,-0.782 -5.656,-2.343 -3.124,-3.124 -3.124,-8.189 0,-11.313 l 93.52,-93.52 c 3.124,-3.124 8.189,-3.124 11.312,0 3.124,3.124 3.124,8.189 0,11.312 l -93.52,93.52 c -1.562,1.563 -3.61,2.344 -5.656,2.344 z"
           id="path251" />
        <path
           style="fill:#f0353d"
           d="m 86.436,448.726 c -2.048,0 -4.095,-0.782 -5.656,-2.343 -3.124,-3.124 -3.124,-8.189 0,-11.313 l 90.503,-90.503 c 3.124,-3.124 8.189,-3.124 11.312,0 3.124,3.124 3.124,8.189 0,11.313 l -90.503,90.503 c -1.561,1.562 -3.608,2.343 -5.656,2.343 z"
           id="path253" />
        <path
           style="fill:#f0353d"
           d="m 44.203,406.491 c -2.047,0 -4.095,-0.781 -5.656,-2.343 -3.124,-3.124 -3.124,-8.189 0,-11.312 l 90.502,-90.503 c 3.124,-3.124 8.189,-3.124 11.313,0 3.124,3.124 3.124,8.189 0,11.312 l -90.503,90.503 c -1.562,1.561 -3.61,2.343 -5.656,2.343 z"
           id="path255" />
      </g>
      <polygon
         style="fill:#9baaab"
         points="273.218,240.917 181.206,148.905 151.039,179.073 243.05,271.084 335.062,363.096 365.23,332.928 "
         id="polygon259"
         transform="matrix(0.14882783,0,0,0.14882783,34.70722,27.666458)" />
      <polygon
         style="fill:#687f82"
         points="243.05,271.084 335.062,363.096 350.661,347.497 166.638,163.474 151.039,179.073 "
         id="polygon261"
         transform="matrix(0.14882783,0,0,0.14882783,34.70722,27.666458)" />
      <g
         id="g267"
         transform="matrix(0.14882783,0,0,0.14882783,34.70722,27.666458)">
        <polygon
           style="fill:#cdd4d5"
           points="42.435,106.67 12.267,136.838 81.653,206.224 148.021,200.19 175.173,173.039 202.324,145.888 208.357,79.519 138.971,10.133 108.804,40.301 166.123,97.62 132.938,130.804 99.754,163.989 "
           id="polygon263" />
        <polygon
           style="fill:#cdd4d5"
           points="407.464,471.699 377.297,501.868 307.911,432.482 313.945,366.113 341.096,338.962 368.247,311.811 434.616,305.777 504.002,375.163 473.834,405.331 416.514,348.012 383.331,381.197 350.146,414.381 "
           id="polygon265" />
      </g>
      <g
         id="g273"
         transform="matrix(0.14882783,0,0,0.14882783,34.70722,27.666458)">
        <polygon
           style="fill:#9baaab"
           points="175.689,172.524 133.454,130.289 132.938,130.804 99.754,163.989 42.435,106.67 12.267,136.838 81.653,206.224 148.021,200.19 175.173,173.039 "
           id="polygon269" />
        <polygon
           style="fill:#9baaab"
           points="407.464,471.699 350.146,414.381 383.331,381.197 383.846,380.681 341.611,338.446 341.096,338.962 313.945,366.113 307.911,432.482 377.297,501.868 "
           id="polygon271" />
      </g>
    </g>
    <g
       id="g277"
       transform="matrix(0.14882783,0,0,0.14882783,34.70722,27.666458)" />
    <g
       id="g279"
       transform="matrix(0.14882783,0,0,0.14882783,34.70722,27.666458)" />
    <g
       id="g281"
       transform="matrix(0.14882783,0,0,0.14882783,34.70722,27.666458)" />
    <g
       id="g283"
       transform="matrix(0.14882783,0,0,0.14882783,34.70722,27.666458)" />
    <g
       id="g285"
       transform="matrix(0.14882783,0,0,0.14882783,34.70722,27.666458)" />
    <g
       id="g287"
       transform="matrix(0.14882783,0,0,0.14882783,34.70722,27.666458)" />
    <g
       id="g289"
       transform="matrix(0.14882783,0,0,0.14882783,34.70722,27.666458)" />
    <g
       id="g291"
       transform="matrix(0.14882783,0,0,0.14882783,34.70722,27.666458)" />
    <g
       id="g293"
       transform="matrix(0.14882783,0,0,0.14882783,34.70722,27.666458)" />
    <g
       id="g295"
       transform="matrix(0.14882783,0,0,0.14882783,34.70722,27.666458)" />
    <g
       id="g297"
       transform="matrix(0.14882783,0,0,0.14882783,34.70722,27.666458)" />
    <g
       id="g299"
       transform="matrix(0.14882783,0,0,0.14882783,34.70722,27.666458)" />
    <g
       id="g301"
       transform="matrix(0.14882783,0,0,0.14882783,34.70722,27.666458)" />
    <g
       id="g303"
       transform="matrix(0.14882783,0,0,0.14882783,34.70722,27.666458)" />
    <g
       id="g305"
       transform="matrix(0.14882783,0,0,0.14882783,34.70722,27.666458)" />
  </g>
</svg>
