<?xml version="1.0" encoding="UTF-8" standalone="no"?>
<svg
   xmlns:dc="http://purl.org/dc/elements/1.1/"
   xmlns:cc="http://creativecommons.org/ns#"
   xmlns:rdf="http://www.w3.org/1999/02/22-rdf-syntax-ns#"
   xmlns:svg="http://www.w3.org/2000/svg"
   xmlns="http://www.w3.org/2000/svg"
   xmlns:sodipodi="http://sodipodi.sourceforge.net/DTD/sodipodi-0.dtd"
   xmlns:inkscape="http://www.inkscape.org/namespaces/inkscape"
   version="1.1"
   id="Capa_1"
   x="0px"
   y="0px"
   viewBox="0 0 255.99999 255.99999"
   xml:space="preserve"
   sodipodi:docname="solutions.svg"
   inkscape:version="1.0.1 (3bc2e813f5, 2020-09-07)"
   width="256"
   height="256"><metadata
   id="metadata43"><rdf:RDF><cc:Work
       rdf:about=""><dc:format>image/svg+xml</dc:format><dc:type
         rdf:resource="http://purl.org/dc/dcmitype/StillImage" /><dc:title></dc:title></cc:Work></rdf:RDF></metadata><defs
   id="defs41" /><sodipodi:namedview
   pagecolor="#ffffff"
   bordercolor="#666666"
   borderopacity="1"
   objecttolerance="10"
   gridtolerance="10"
   guidetolerance="10"
   inkscape:pageopacity="0"
   inkscape:pageshadow="2"
   inkscape:window-width="1920"
   inkscape:window-height="1032"
   id="namedview39"
   showgrid="false"
   inkscape:zoom="1.7072348"
   inkscape:cx="153.75023"
   inkscape:cy="188.83214"
   inkscape:window-x="0"
   inkscape:window-y="0"
   inkscape:window-maximized="1"
   inkscape:current-layer="Capa_1"
   inkscape:document-rotation="0" />
<g
   id="g6"
   transform="matrix(10.428867,0,0,10.428867,-0.00260722,1.156758)">
	<path
   style="fill:#ff7f0e"
   d="m 5.285,24.082 c -0.111,0 -0.217,-0.041 -0.298,-0.12 L 0.121,19.083 c -0.161,-0.159 -0.161,-0.422 0,-0.585 l 4.866,-4.885 c 0.119,-0.117 0.298,-0.155 0.454,-0.089 0.156,0.06 0.256,0.215 0.256,0.384 v 3.021 h 13.335 c 0.369,0 0.67,-0.301 0.67,-0.668 v -3.4 c 0,-0.111 0.043,-0.216 0.119,-0.295 l 3.256,-3.269 c 0.118,-0.118 0.3,-0.156 0.454,-0.091 0.157,0.066 0.258,0.22 0.258,0.386 v 7.391 c 0,2.64 -1.395,4.034 -4.033,4.034 H 5.698 v 2.652 c 0,0.167 -0.1,0.318 -0.256,0.38 -0.05,0.021 -0.107,0.033 -0.157,0.033 z"
   id="path2" />
	<path
   style="fill:#1f77b4"
   d="M 1.171,15.378 C 1.116,15.378 1.063,15.366 1.012,15.345 0.856,15.282 0.754,15.132 0.754,14.962 v -7.39 c 0,-2.641 1.392,-4.033 4.033,-4.033 H 18.851 V 0.88 c 0,-0.165 0.101,-0.317 0.256,-0.385 0.158,-0.061 0.335,-0.031 0.455,0.092 l 4.864,4.875 c 0.162,0.162 0.162,0.427 0,0.588 l -4.864,4.882 c -0.119,0.121 -0.296,0.158 -0.454,0.091 -0.155,-0.063 -0.256,-0.216 -0.256,-0.386 V 7.623 H 5.508 c -0.367,0 -0.664,0.3 -0.664,0.669 v 3.401 c 0,0.11 -0.043,0.213 -0.124,0.296 l -3.258,3.265 c -0.077,0.08 -0.181,0.124 -0.291,0.124 z"
   id="path4" />
</g>
<g
   id="g8"
   transform="translate(-2.4999675e-4,-0.46440743)">
</g>
<g
   id="g10"
   transform="translate(-2.4999675e-4,-0.46440743)">
</g>
<g
   id="g12"
   transform="translate(-2.4999675e-4,-0.46440743)">
</g>
<g
   id="g14"
   transform="translate(-2.4999675e-4,-0.46440743)">
</g>
<g
   id="g16"
   transform="translate(-2.4999675e-4,-0.46440743)">
</g>
<g
   id="g18"
   transform="translate(-2.4999675e-4,-0.46440743)">
</g>
<g
   id="g20"
   transform="translate(-2.4999675e-4,-0.46440743)">
</g>
<g
   id="g22"
   transform="translate(-2.4999675e-4,-0.46440743)">
</g>
<g
   id="g24"
   transform="translate(-2.4999675e-4,-0.46440743)">
</g>
<g
   id="g26"
   transform="translate(-2.4999675e-4,-0.46440743)">
</g>
<g
   id="g28"
   transform="translate(-2.4999675e-4,-0.46440743)">
</g>
<g
   id="g30"
   transform="translate(-2.4999675e-4,-0.46440743)">
</g>
<g
   id="g32"
   transform="translate(-2.4999675e-4,-0.46440743)">
</g>
<g
   id="g34"
   transform="translate(-2.4999675e-4,-0.46440743)">
</g>
<g
   id="g36"
   transform="translate(-2.4999675e-4,-0.46440743)">
</g>
</svg>
