<?xml version="1.0" encoding="UTF-8" standalone="no"?>
<!-- Created with Inkscape (http://www.inkscape.org/) -->

<svg
   width="32.841248mm"
   height="41.002304mm"
   viewBox="0 0 32.841247 41.002304"
   version="1.1"
   id="svg8"
   inkscape:version="1.1.1 (3bf5ae0d25, 2021-09-20, custom)"
   sodipodi:docname="UWP-Letter.svg"
   xmlns:inkscape="http://www.inkscape.org/namespaces/inkscape"
   xmlns:sodipodi="http://sodipodi.sourceforge.net/DTD/sodipodi-0.dtd"
   xmlns="http://www.w3.org/2000/svg"
   xmlns:svg="http://www.w3.org/2000/svg"
   xmlns:rdf="http://www.w3.org/1999/02/22-rdf-syntax-ns#"
   xmlns:cc="http://creativecommons.org/ns#"
   xmlns:dc="http://purl.org/dc/elements/1.1/">
  <defs
     id="defs2">
    <clipPath
       id="clipPath26"
       clipPathUnits="userSpaceOnUse">
      <path
         inkscape:connector-curvature="0"
         id="path24"
         d="M 0,612 H 792 V 0 H 0 Z" />
    </clipPath>
  </defs>
  <sodipodi:namedview
     id="base"
     pagecolor="#ffffff"
     bordercolor="#666666"
     borderopacity="1.0"
     inkscape:pageopacity="0.0"
     inkscape:pageshadow="2"
     inkscape:zoom="0.7"
     inkscape:cx="610"
     inkscape:cy="-33.571429"
     inkscape:document-units="mm"
     inkscape:current-layer="layer1"
     showgrid="false"
     inkscape:window-width="2486"
     inkscape:window-height="1391"
     inkscape:window-x="0"
     inkscape:window-y="0"
     inkscape:window-maximized="1"
     inkscape:pagecheckerboard="0" />
  <metadata
     id="metadata5">
    <rdf:RDF>
      <cc:Work
         rdf:about="">
        <dc:format>image/svg+xml</dc:format>
        <dc:type
           rdf:resource="http://purl.org/dc/dcmitype/StillImage" />
      </cc:Work>
    </rdf:RDF>
  </metadata>
  <g
     inkscape:label="Layer 1"
     inkscape:groupmode="layer"
     id="layer1"
     transform="translate(40.819302,-24.063354)">
    <g
       id="g360">
      <g
         transform="matrix(0.35277777,0,0,-0.35277777,-29.724899,46.520834)"
         id="g28">
        <path
           inkscape:connector-curvature="0"
           id="path30"
           style="fill:#1a64b7;fill-opacity:1;fill-rule:nonzero;stroke:none"
           d="M 0,0 -0.048,39.417 C -4.329,31.486 -10.767,24.902 -18.567,20.426 l 0.07,-32.361 c 7.745,-4.334 14.17,-10.738 18.534,-18.47 l -0.03,24.744 z" />
      </g>
      <g
         transform="matrix(0.35277777,0,0,-0.35277777,-21.111619,46.049558)"
         id="g32">
        <path
           inkscape:connector-curvature="0"
           id="path34"
           style="fill:#104076;fill-opacity:1;fill-rule:nonzero;stroke:none"
           d="m 0,0 c -0.53,-2.174 -0.891,-4.412 -1.076,-6.701 15.032,1.248 24.76,6.368 29.726,12.012 5.719,6.5 8.579,13.903 8.579,22.208 0,1.565 -0.081,3.18 -0.233,4.796 C 29.472,31.527 22.531,28.78 16.688,24.603 16.564,17.023 14.841,10.808 11.516,5.968 9.6,3.178 5.304,1.19 0,0" />
      </g>
      <g
         transform="matrix(0.35277777,0,0,-0.35277777,-40.819302,25.994812)"
         id="g36">
        <path
           inkscape:connector-curvature="0"
           id="path38"
           style="fill:#104076;fill-opacity:1;fill-rule:nonzero;stroke:none"
           d="m 0,0 h 12.853 v -10.079 l -0.032,-0.009 0.045,-21.124 c 10.223,6.945 17.272,18.211 18.531,31.171 V 0 h 0.002 c 0.131,1.361 0.205,2.741 0.205,4.137 0,0.446 -0.021,0.891 -0.035,1.338 H 0 Z" />
      </g>
      <g
         transform="matrix(0.35277777,0,0,-0.35277777,-29.694561,63.108798)"
         id="g40">
        <path
           inkscape:connector-curvature="0"
           id="path42"
           style="fill:#f36018;fill-opacity:1;fill-rule:nonzero;stroke:none"
           d="M 0,0 H -0.029 V 0.167 C -2.052,12.008 -8.936,22.182 -18.569,28.56 L -18.509,0 H -30.44 V -5.547 H 0.557 C 0.491,-3.663 0.303,-1.812 0,0" />
      </g>
      <g
         transform="matrix(0.35277777,0,0,-0.35277777,-27.705882,24.535441)"
         id="g44">
        <path
           inkscape:connector-curvature="0"
           id="path46"
           style="fill:#104076;fill-opacity:1;fill-rule:nonzero;stroke:none"
           d="m 0,0 c 0,-1.396 -0.072,-2.773 -0.186,-4.137 h 5.887 c 4.652,0 9.825,-0.492 14.085,-1.47 l 8.556,5.712 C 24.597,0.892 20.145,1.338 14.209,1.338 H -0.033 C -0.021,0.892 0,0.446 0,0" />
      </g>
      <g
         transform="matrix(0.35277777,0,0,-0.35277777,-15.858546,25.009328)"
         id="g48">
        <path
           inkscape:connector-curvature="0"
           id="path50"
           style="fill:#104076;fill-opacity:1;fill-rule:nonzero;stroke:none"
           d="m 0,0 -8.786,-5.863 c 0.838,-0.374 1.58,-0.782 2.169,-1.226 3.808,-2.868 6.15,-6.137 7.027,-9.809 0.786,-3.304 1.22,-7.159 1.344,-11.5 5.822,3.502 12.445,5.806 19.527,6.582 -0.778,3.693 -1.984,7.056 -3.619,9.392 -3.119,4.443 -6.946,7.742 -11.505,9.872 C 4.102,-1.591 2.122,-0.729 0,0" />
      </g>
      <g
         transform="matrix(0.35277777,0,0,-0.35277777,-29.722465,48.51798)"
         id="g52">
        <path
           inkscape:connector-curvature="0"
           id="path54"
           style="fill:#104076;fill-opacity:1;fill-rule:nonzero;stroke:none"
           d="m 0,0 h 16.153 c 0.537,0 1.049,0.021 1.576,0.03 0.132,2.04 0.389,4.045 0.769,6.01 C 16.191,5.792 13.806,5.661 11.417,5.661 H -0.007 Z" />
      </g>
    </g>
  </g>
</svg>
